<svg xmlns="http://www.w3.org/2000/svg" xmlns:xlink="http://www.w3.org/1999/xlink" viewBox="0 0 160.74 68.13"><defs><style>.cls-1{fill:#54c2f1;}.cls-2{fill:url(#Безымянный_градиент_104);}.cls-3{fill:url(#Новый_образец_градиента_6);}.cls-4{fill:url(#Безымянный_градиент_77);}.cls-5{fill:url(#Безымянный_градиент_74);}.cls-6{fill:url(#Безымянный_градиент_89);}.cls-7{fill:#dde7ee;}.cls-8{fill:url(#Безымянный_градиент_3);}</style><linearGradient id="Безымянный_градиент_104" x1="139.31" y1="-8.78" x2="137.11" y2="71.63" gradientUnits="userSpaceOnUse"><stop offset="0" stop-color="#312e48"/><stop offset="0.09" stop-color="#333853"/><stop offset="0.24" stop-color="#395271"/><stop offset="0.44" stop-color="#427da1"/><stop offset="0.69" stop-color="#4fb7e4"/><stop offset="0.73" stop-color="#52c3f1"/></linearGradient><linearGradient id="Новый_образец_градиента_6" x1="138.29" y1="4.36" x2="138.75" y2="24.8" gradientUnits="userSpaceOnUse"><stop offset="0" stop-color="#c3d773"/><stop offset="0.24" stop-color="#8fcf94"/><stop offset="0.61" stop-color="#42c4c4"/><stop offset="0.87" stop-color="#12bde2"/><stop offset="1" stop-color="#00baee"/></linearGradient><linearGradient id="Безымянный_градиент_77" x1="138.27" y1="25.96" x2="138.52" y2="37.24" gradientUnits="userSpaceOnUse"><stop offset="0" stop-color="#e9e668"/><stop offset="0.12" stop-color="#cadf84"/><stop offset="0.32" stop-color="#a0d5ab"/><stop offset="0.51" stop-color="#7ecdc9"/><stop offset="0.69" stop-color="#66c8df"/><stop offset="0.86" stop-color="#57c4ec"/><stop offset="1" stop-color="#52c3f1"/></linearGradient><linearGradient id="Безымянный_градиент_74" x1="136.61" y1="19.76" x2="136.89" y2="32.24" gradientUnits="userSpaceOnUse"><stop offset="0" stop-color="#d7dc49"/><stop offset="0.07" stop-color="#c2d864"/><stop offset="0.19" stop-color="#a0d28f"/><stop offset="0.31" stop-color="#84ccb2"/><stop offset="0.43" stop-color="#6ec8ce"/><stop offset="0.55" stop-color="#5ec5e1"/><stop offset="0.68" stop-color="#55c4ed"/><stop offset="0.81" stop-color="#52c3f1"/></linearGradient><linearGradient id="Безымянный_градиент_89" x1="128.31" y1="33.84" x2="128.17" y2="38.92" gradientUnits="userSpaceOnUse"><stop offset="0" stop-color="#ece54f"/><stop offset="0.09" stop-color="#dae162"/><stop offset="0.44" stop-color="#91d1af"/><stop offset="0.7" stop-color="#63c7df"/><stop offset="0.83" stop-color="#52c3f1"/></linearGradient><linearGradient id="Безымянный_градиент_3" x1="137.83" y1="26.65" x2="138.89" y2="74.03" gradientUnits="userSpaceOnUse"><stop offset="0.47" stop-color="#003f45"/><stop offset="0.56" stop-color="#0a505b"/><stop offset="0.73" stop-color="#257b93"/><stop offset="0.99" stop-color="#50bfec"/><stop offset="1" stop-color="#52c3f1"/></linearGradient></defs><g id="Слой_2" data-name="Слой 2"><g id="Слой_1-2" data-name="Слой 1"><path class="cls-1" d="M26.05,18,16.33,31.05H15.18L5.65,18v21.8H0v-30H6.5l9.37,12.91,9.4-12.91h6.47v30H26.05Z"/><path class="cls-1" d="M66.8,39.77l-2.51-5.65H48.61L46,39.77h-6.1l13.45-30h6.14L73,39.77ZM62,28.82,56.45,16.07,50.9,28.82Z"/><path class="cls-1" d="M100.4,28.33V9.7h5.65v30h-3.5v0L86.78,19.51V39.74H81.14v-30h4.57Z"/><path class="cls-1" d="M1.92,57H.06V47.12H1.92Z"/><path class="cls-1" d="M9.79,53.24V47.1h1.86V57H10.5L5.3,50.33V57H3.43V47.11H4.94Z"/><path class="cls-1" d="M20.85,56.88V48.69H17.72V47h8.13v1.7H22.71v8.19Z"/><path class="cls-1" d="M35.94,57H34.09V53H29.24v4H27.37V47.13h1.87V51.3h4.85V47.13h1.85Z"/><path class="cls-1" d="M44.86,55.17V57h-7.4V47.12h7.4v1.81H39.32V51.2h5.35v1.74H39.32v2.23Z"/><path class="cls-1" d="M60.65,57l-.83-1.86H54.65L53.8,57h-2l4.44-9.89h2L62.68,57ZM59.07,53.4l-1.84-4.2L55.4,53.4Z"/><path class="cls-1" d="M72.41,56.88H70.2l-2.88-3.31h-1.8v3.31H63.66V47h4.71a4.38,4.38,0,0,1,1.53.28A3.07,3.07,0,0,1,71,48a3.26,3.26,0,0,1,.67,1,3.37,3.37,0,0,1,.23,1.24,4.17,4.17,0,0,1-.08.8,3.26,3.26,0,0,1-.26.76,2.69,2.69,0,0,1-.47.67,2.63,2.63,0,0,1-.71.53,3.24,3.24,0,0,1-1,.34l3,3.37Zm-6.89-8.14v3.15h2.85a1.64,1.64,0,0,0,1.26-.46,1.61,1.61,0,0,0,.43-1.11,1.58,1.58,0,0,0-.44-1.12,1.63,1.63,0,0,0-1.25-.46Z"/><path class="cls-1" d="M81.65,54.48l1.27,1.28a5.08,5.08,0,0,1-3.75,1.48,6.33,6.33,0,0,1-2-.29,4.51,4.51,0,0,1-1.48-.77,4.4,4.4,0,0,1-1-1.14,5,5,0,0,1-.6-1.38,5.92,5.92,0,0,1-.2-1.52,6.08,6.08,0,0,1,.2-1.54,4.58,4.58,0,0,1,.62-1.42,4.77,4.77,0,0,1,1-1.17,4.66,4.66,0,0,1,1.48-.8,6.23,6.23,0,0,1,1.92-.29,5,5,0,0,1,3.63,1.51l-1.24,1.2a3.29,3.29,0,0,0-2.39-.93,3.73,3.73,0,0,0-1.53.3,2.88,2.88,0,0,0-1.08.8,3.37,3.37,0,0,0-.6,1.1,3.91,3.91,0,0,0-.2,1.23,4.49,4.49,0,0,0,.1.83,4.32,4.32,0,0,0,.25.77,2.46,2.46,0,0,0,.45.7,3.5,3.5,0,0,0,.65.55,2.7,2.7,0,0,0,.86.37,4.25,4.25,0,0,0,1.1.13,3.79,3.79,0,0,0,1.34-.26A3.21,3.21,0,0,0,81.65,54.48Z"/><path class="cls-1" d="M87.58,56.88V48.69H84.45V47h8.13v1.7H89.45v8.19Z"/><path class="cls-1" d="M96,57H94.11V47.12H96Z"/><path class="cls-1" d="M105.2,54.48l1.27,1.28a5.09,5.09,0,0,1-3.76,1.48,6.22,6.22,0,0,1-1.94-.29A4.38,4.38,0,0,1,98.28,55a5,5,0,0,1-.61-1.38,6.39,6.39,0,0,1-.19-1.52,6.56,6.56,0,0,1,.19-1.54,5.11,5.11,0,0,1,.62-1.42,5,5,0,0,1,1-1.17,4.55,4.55,0,0,1,1.48-.8,6.17,6.17,0,0,1,1.91-.29,5,5,0,0,1,3.63,1.51l-1.24,1.2a3.26,3.26,0,0,0-2.39-.93,3.8,3.8,0,0,0-1.53.3,2.77,2.77,0,0,0-1.07.8,3.37,3.37,0,0,0-.6,1.1,3.91,3.91,0,0,0-.2,1.23,4.49,4.49,0,0,0,.1.83,3.64,3.64,0,0,0,.25.77,2.46,2.46,0,0,0,.45.7,3.43,3.43,0,0,0,.64.55,2.86,2.86,0,0,0,.87.37,4.18,4.18,0,0,0,1.09.13,3.75,3.75,0,0,0,1.34-.26A3.35,3.35,0,0,0,105.2,54.48Z"/><polygon class="cls-2" points="160.74 37.92 158.16 42.71 141.55 61.82 116.08 48.15 116.1 9.7 138.41 0 160.72 9.7 160.74 37.92"/><path class="cls-3" d="M116.1,9.7,138.41,0l22.31,9.7v5.63l-40.55,7.34Z"/><path class="cls-4" d="M153.35,30.31c-.5-.09-29.84,5.85-29.84,5.85l1.8-12.31Z"/><polygon class="cls-5" points="120.17 22.67 153.35 30.31 152.95 16.73 120.17 22.67"/><path class="cls-6" d="M123.51,36.16c.24,0,9.4,2.26,9.4,2.26l-1.1-3.93Z"/><polyline class="cls-7" points="134.86 54.92 138 54.12 140.04 52.35 144.07 52.17 148.62 49.47 150.88 46.23 155.95 44.06 158.26 39.39 160.74 37.92 160.74 50.31 138.44 65.11 118.13 53.57 117.52 48.75 121.25 49.33 122.6 50.79 124.5 51.23 126.78 53.44 130.84 53.68 131.99 54.33 134.86 54.92"/><path class="cls-8" d="M158.61,51.47l-1.76-.34-2.46,1.33-3.48.95-2.8,0-2.32.85.26-3.77a.34.34,0,0,0,0-.1c-.12-.48-1-4.16-.85-4.45a12.78,12.78,0,0,0-.13-2.64c0-.25.13-2.4.13-2.4h1s-.12-1.06-.12-1.56-.11-1.52-.11-1.7-.74-3.88-.77-4a3.56,3.56,0,0,1,0-.5,5.45,5.45,0,0,1,.12-.61c0-.13-.07-.8-.11-1s1.06-1.19,1.34-1.45a.31.31,0,0,0,.1-.15l.44-1.33a20.08,20.08,0,0,0,0-2.07.25.25,0,0,0,0-.14c-.16-.34-1-1.95-1-2.06s-1-.34-1.08-.62.06-.21,0-.43,0,0-.06-.24-.21-.1-.34-.29.13,0-.14-.48-.37-.63-.43-.76.05-.16-.06-.35-.19-.26-.54-.21-1.4.89-.34-.56c.13-.17,0-.4,0-.58a2.4,2.4,0,0,0-.15-.65c-.09-.31.14-.28,0-.76a4.62,4.62,0,0,0-.25-.92c-.16-.34-.36-.38-.83-.73a2.26,2.26,0,0,0-1.31-.24,3.07,3.07,0,0,0-1.94,1,3.18,3.18,0,0,0-.4,2.52,2.63,2.63,0,0,1,.16.46,1.93,1.93,0,0,0,.28.47s.11.94,0,.94l-1-.08a13.57,13.57,0,0,1-1,1,1.67,1.67,0,0,1-.52.12,14.52,14.52,0,0,1-1.6,1.67c-.49.34-.25.63-.62.78s-1.29.58-1.41.67-.19.95-.25,1.13-.25.71-.37,1a6,6,0,0,0,.74,1.56,10.52,10.52,0,0,0,1.76,1,6.17,6.17,0,0,0,1.29,0s.12.43.15.52a3.28,3.28,0,0,1,.13,1.08,7.18,7.18,0,0,1-.28,1.2,3,3,0,0,0-.31.95c0,.17,0,.79.06,1a.4.4,0,0,1,0,.15l-1.63,4.07.61.18.48.37a5.41,5.41,0,0,0-.19.72,3.06,3.06,0,0,1-.1.92c-.12.22-.31,1.86-.5,2.07a13,13,0,0,0-.74,1.55.29.29,0,0,0,0,.1l-.18,1.79a10.73,10.73,0,0,1-.12,1.35,6,6,0,0,0,0,1c0,.15,0,1.26-.12,1.57a2.49,2.49,0,0,1-.42.7s.2,1.36.17,1.48-.5,1.62-.65,2.11l-3.29-.21-3.09-1.48L124,52.23,121.08,51l-.79-1.17-4.21-1.69,0,9.09,22.27,10.89,22.35-10.86v-7Zm-21,4.28-.83-.08c0-.25.06-.4.12-.91a3.55,3.55,0,0,1,.28-1,5.61,5.61,0,0,0,.21-.83c0-.28.19-.8.21-1s0-.13-.07-.28a4,4,0,0,1,.24-1.44c.09-.09.08-.3.2-.52s-.06-.28-.21-.46,0-.28,0-.28.25-.31.36-.43a4.52,4.52,0,0,0,.26-1.14c0-.17.37-1.5.42-1.7,0,0,0,0,0-.05l.76-1.73.64-.24s-.09,1.5-.09,2a9.69,9.69,0,0,0,.58,2,4.63,4.63,0,0,1,.65,1,2,2,0,0,1,.19,1c0,.46-.1.52-.1.86A9.19,9.19,0,0,0,141.6,52c.06.4.06.44.06.44s0,1.72,0,2.06a5.67,5.67,0,0,1-.1,1l-1.75,0Z"/></g></g></svg>