<svg xmlns="http://www.w3.org/2000/svg" xmlns:xlink="http://www.w3.org/1999/xlink" viewBox="0 0 261.91 92.92"><defs><style>.cls-1{fill:#fff;}.cls-2{fill:#113060;}.cls-3{mask:url(#mask);}.cls-4{fill:#7e5838;}.cls-5{fill:#dcc763;}.cls-6{fill:#518551;}.cls-7{mask:url(#mask-2);}.cls-8{mask:url(#mask-3);}</style><mask id="mask" x="14.75" y="0" width="24.45" height="27.23" maskUnits="userSpaceOnUse"><g id="b"><g id="g18"><path id="a" class="cls-1" d="M14.82,0H39.2V27.15H14.82Z"/></g></g></mask><mask id="mask-2" x="45.95" y="46.35" width="7.2" height="9.08" maskUnits="userSpaceOnUse"><g id="d"><g id="g203"><path id="c" class="cls-1" d="M46,46.35h7.2v9.08H46Z"/></g></g></mask><mask id="mask-3" x="18.17" y="60.47" width="16.13" height="9.15" maskUnits="userSpaceOnUse"><g id="f"><g id="g238"><path id="e" class="cls-1" d="M18.17,60.47H34.3v9.15H18.17Z"/></g></g></mask></defs><g id="Слой_2" data-name="Слой 2"><g id="svg8"><path id="path414" class="cls-2" d="M76.66,41.17a7.41,7.41,0,0,1-5.25-2.1l1.35-1.65a5.84,5.84,0,0,0,4,1.73c1.35,0,2.25-.68,2.25-1.65s-.53-1.43-2.85-2c-2.7-.67-4.2-1.5-4.2-3.9s1.8-3.75,4.35-3.75a6.82,6.82,0,0,1,4.57,1.65l-1.2,1.73a5.42,5.42,0,0,0-3.45-1.35c-1.27,0-2.1.67-2.1,1.57s.6,1.43,3,2c2.7.67,4,1.65,4,3.82.08,2.4-1.8,3.83-4.5,3.9ZM82.74,41l5.55-13.13h2.1L95.94,41H93.61L92.34,37.8h-6L85.06,41Zm4.42-5.18h4.35l-2.17-5.25ZM98.26,41V27.9h2.25V41Zm5.63,0V27.9H106l6.82,9v-9H115V41h-1.88l-7-9.3V41Zm17.4,0V30h-4.05V27.9h10.27V30h-4.05V41Zm16,0V27.9h5c2.92,0,4.8,1.72,4.8,4.42,0,2.93-2.25,4.43-5.1,4.43h-2.55V41Zm2.25-6.3h2.55a2.42,2.42,0,0,0,2.7-2.4c0-1.5-1-2.33-2.7-2.33h-2.55Zm9.83,6.3V27.9h9.37v2h-7.2V33.3h6.38v2h-6.38v3.6h7.28v2Zm15.3,0V30h-4V27.9h10.27V30h-4.05V41Zm8.62,0V27.9h9.38v2h-7.2V33.3h6.37v2h-6.37v3.6h7.27v2Zm12.08,0V27.9H191c3,0,4.73,1.65,4.73,4.12a3.94,3.94,0,0,1-3,4l3.45,5h-2.63l-3.15-4.58h-2.77V41Zm2.25-6.6h3.22c1.58,0,2.63-.83,2.63-2.25s-1-2.18-2.63-2.18h-3.22Zm15.3,6.75a7.45,7.45,0,0,1-5.25-2.1l1.27-1.58a5.84,5.84,0,0,0,4,1.73c1.35,0,2.25-.68,2.25-1.65s-.53-1.43-2.85-2c-2.7-.67-4.2-1.5-4.2-3.9s1.8-3.75,4.35-3.75A6.82,6.82,0,0,1,207,29.47l-1.2,1.73a5.42,5.42,0,0,0-3.45-1.35c-1.27,0-2.1.67-2.1,1.57s.6,1.43,3,2c2.7.67,4.05,1.65,4.05,3.82.08,2.4-1.8,3.83-4.42,3.83ZM210,41V27.9h5.7A4.38,4.38,0,0,1,219,29a3.12,3.12,0,0,1,.83,2.18,3.2,3.2,0,0,1-1.8,2.92,3.24,3.24,0,0,1,2.55,3.23c0,2.32-1.88,3.6-4.73,3.6Zm2.18-7.58h3.07c1.43,0,2.4-.6,2.4-1.8,0-1.05-.82-1.65-2.25-1.65h-3.22Zm0,5.55h3.67c1.5,0,2.48-.6,2.48-1.8s-.83-1.72-2.63-1.72h-3.52Zm16.12,2.25c-3.3,0-5.4-2-5.4-5.77V27.9h2.25v7.42c0,2.4,1.2,3.75,3.23,3.75s3.15-1.2,3.15-3.6V28h2.25V35.4c-.08,3.82-2.18,5.77-5.48,5.77Zm8.48-.22V27.9h5.62c3,0,4.73,1.65,4.73,4.12a3.94,3.94,0,0,1-3,4l3.45,5H245l-3.15-4.58H239V41Zm2.25-6.6h3.22c1.58,0,2.63-.83,2.63-2.25s-1-2.18-2.63-2.18H239Zm16.87,6.82a6.42,6.42,0,0,1-6.6-6.75,6.79,6.79,0,0,1,11.4-5l-1.42,1.73a5,5,0,0,0-3.53-1.43,4.39,4.39,0,0,0-4.12,4.65c0,2.7,1.72,4.65,4.27,4.65a5.21,5.21,0,0,0,3.08-1V35.62h-3.23V33.67h5.4v5.48A7.92,7.92,0,0,1,255.91,41.17ZM72.16,65V51.9h2.4l3.83,6.15,3.82-6.15h2.4V65H82.36V55.57l-4,6.15h-.08l-4-6.15v9.3ZM88,65V51.9h2.25V65Zm5.62,0V51.9h2.1l6.83,9v-9h2.17V65h-1.87l-7-9.3V65Zm14.48,0V51.9h2.25V65Zm5.62,0V51.9h2.1l6.83,9v-9h2.17V65h-1.87l-7-9.3V65Zm20.33.22a6.41,6.41,0,0,1-6.6-6.75,6.79,6.79,0,0,1,11.4-5l-1.43,1.73a5,5,0,0,0-3.52-1.43,4.39,4.39,0,0,0-4.13,4.65c0,2.7,1.73,4.65,4.35,4.65a5.21,5.21,0,0,0,3.08-1V59.62H134V57.67h5.4v5.48a8,8,0,0,1-5.32,2Zm18.82,0c-3.3,0-5.4-2-5.4-5.77V51.9h2.25v7.42c0,2.4,1.2,3.75,3.23,3.75s3.22-1.2,3.22-3.6V52h2.25V59.4C158.34,63.22,156.16,65.17,152.86,65.17Zm8.55-.22V51.9h2.1l6.83,9v-9h2.17V65h-1.87l-7-9.3V65Zm14.4,0V51.9h2.25V65Zm9.83.07L180.39,51.9h2.47L186.69,62l3.82-10.05h2.4L187.66,65Zm9.45-.07V51.9h9.37v2h-7.2V57.3h6.38v2h-6.38v3.6h7.28v2Zm12.07,0V51.9h5.63c3,0,4.72,1.65,4.72,4.12a3.93,3.93,0,0,1-3,4L218,65h-2.62l-3.15-4.58h-2.78V65Zm2.25-6.6h3.3c1.58,0,2.63-.83,2.63-2.25s-1-2.18-2.63-2.18h-3.3Zm15.3,6.75a7.74,7.74,0,0,1-5.32-2.1l1.35-1.65a5.83,5.83,0,0,0,4,1.72c1.35,0,2.25-.67,2.25-1.65s-.52-1.42-2.85-2c-2.7-.68-4.2-1.5-4.2-3.9s1.8-3.75,4.35-3.75a6.85,6.85,0,0,1,4.58,1.65l-1.2,1.72a5.45,5.45,0,0,0-3.45-1.35c-1.28,0-2.1.68-2.1,1.58s.6,1.42,3,2c2.7.68,4,1.65,4,3.83.15,2.47-1.73,3.9-4.43,3.9Zm7.35-.15V51.9h2.25V65Zm8.7,0V54h-4V51.9H247V54h-4.05V65Zm12.38,0V59.77l-5-7.87h2.63l3.52,5.77,3.6-5.77h2.55l-5,7.87V65ZM4.44,91V83.32H1.66v-.6H7.89v.6H5V91Zm5.17,0V82.42h.6V86.1a2.34,2.34,0,0,1,2.1-1.28,2.25,2.25,0,0,1,2.33,2.48V91H14v-3.6a1.81,1.81,0,0,0-1.88-2,2.05,2.05,0,0,0-2,2.17V91Zm9.53.15A2.92,2.92,0,0,1,16.29,88a3,3,0,0,1,2.77-3.15c1.65,0,2.7,1.35,2.7,3.15v.23H16.89a2.34,2.34,0,0,0,2.32,2.4,2.77,2.77,0,0,0,2-1l.37.38a3.23,3.23,0,0,1-2.47,1.12Zm-2.33-3.37h4.28A2.2,2.2,0,0,0,19,85.42,2.37,2.37,0,0,0,16.81,87.75ZM26.94,91V82.72h5.7v.6h-5.1V86.7h4.57v.6H27.54v3.75Zm7.5,0V85H35v6Zm-.08-7.5v-.82H35v.82ZM37.29,91V85h.6V86.7a2.74,2.74,0,0,1,2.62-1.8v.6h-.07c-1.35,0-2.55,1-2.55,3V91Zm6.45.15a3.9,3.9,0,0,1-2.4-.9l.3-.45a3.35,3.35,0,0,0,2.1.83c.82,0,1.42-.45,1.42-1.2s-.75-1-1.57-1.2c-1-.3-2-.6-2-1.65a1.75,1.75,0,0,1,1.95-1.65,3.66,3.66,0,0,1,2.1.67l-.3.45a3.26,3.26,0,0,0-1.8-.6c-.82,0-1.35.45-1.35,1s.83.9,1.65,1.2c1,.3,1.95.6,1.95,1.73a1.82,1.82,0,0,1-2,1.72Zm5.85,0a1.53,1.53,0,0,1-1.65-1.65v-3.9h-.83v-.52h.83v-2h.6v2h2v.52h-2.1v3.9a1.1,1.1,0,0,0,1.2,1.2,2.23,2.23,0,0,0,.9-.22V91a4.69,4.69,0,0,1-1,.15ZM55.81,91V82.72h.6v3.83h5.18V82.72h.6V91h-.6V87.15H56.41V91Zm8.7,0V85h.6v6Zm-.07-7.5v-.82h.67v.82Zm5.4,9.45a4.47,4.47,0,0,1-2.7-.9l.3-.45a3.84,3.84,0,0,0,2.4.83,2.17,2.17,0,0,0,2.32-2.33v-.9a2.85,2.85,0,1,1,0-3V85h.6v5.1a2.79,2.79,0,0,1-.75,2,3,3,0,0,1-2.17.82ZM69.76,90a2.35,2.35,0,0,0,2.4-2.33,2.29,2.29,0,0,0-2.4-2.25,2.29,2.29,0,0,0,0,4.58Zm5.1,1V82.42h.6V86.1a2.34,2.34,0,0,1,2.1-1.28,2.25,2.25,0,0,1,2.33,2.48V91h-.6v-3.6a1.81,1.81,0,0,0-1.88-2,2.05,2.05,0,0,0-2,2.17V91Zm9.6.15A2.93,2.93,0,0,1,81.61,88a3,3,0,0,1,2.78-3.15c1.65,0,2.7,1.35,2.7,3.15v.23H82.21a2.36,2.36,0,0,0,2.33,2.4,2.73,2.73,0,0,0,2-1l.38.38a3.25,3.25,0,0,1-2.48,1.12Zm-2.32-3.37h4.27a2.2,2.2,0,0,0-2.1-2.33A2.37,2.37,0,0,0,82.14,87.75ZM88.66,91V85h.6V86.7a2.75,2.75,0,0,1,2.63-1.8v.6h-.08c-1.35,0-2.55,1-2.55,3V91Zm10.43,0V83.32H96.31v-.6h6.23v.6H99.69V91Zm7.57.15A2.93,2.93,0,0,1,103.81,88a3,3,0,0,1,2.78-3.15c1.65,0,2.7,1.35,2.7,3.15v.23h-4.88a2.36,2.36,0,0,0,2.33,2.4,2.73,2.73,0,0,0,2-1l.38.38a3,3,0,0,1-2.48,1.12Zm-2.25-3.37h4.28a2.2,2.2,0,0,0-2.1-2.33A2.27,2.27,0,0,0,104.41,87.75Zm9.15,3.37a3,3,0,0,1-3-3.15,3.09,3.09,0,0,1,3-3.15A2.92,2.92,0,0,1,115.89,86l-.38.37a2.61,2.61,0,0,0-2-1,2.57,2.57,0,0,0-2.4,2.62,2.52,2.52,0,0,0,2.4,2.63,2.55,2.55,0,0,0,2-1l.45.37A2.91,2.91,0,0,1,113.56,91.12Zm4-.15V82.42h.6V86.1a2.32,2.32,0,0,1,2.1-1.28,2.24,2.24,0,0,1,2.32,2.48V91H122v-3.6a1.81,1.81,0,0,0-1.87-2,2.05,2.05,0,0,0-2,2.17V91Zm7,0V85h.6V86.1a2.32,2.32,0,0,1,2.1-1.28,2.24,2.24,0,0,1,2.32,2.48V91H129v-3.6a1.81,1.81,0,0,0-1.87-2,2.05,2.05,0,0,0-2,2.17V91Zm7.12,0V85h.6v6Zm-.07-7.5v-.82h.67v.82Zm5.47,7.65a3,3,0,0,1-3-3.15,3.09,3.09,0,0,1,3-3.15A2.92,2.92,0,0,1,139.44,86l-.38.37a2.61,2.61,0,0,0-1.95-1,2.57,2.57,0,0,0-2.4,2.62,2.52,2.52,0,0,0,2.4,2.63,2.55,2.55,0,0,0,1.95-1l.45.37A2.81,2.81,0,0,1,137.11,91.12Zm5.78,0a2,2,0,0,1-2.25-1.87c0-1.28,1.05-2,2.55-2a7.38,7.38,0,0,1,1.95.22V87.3c0-1.2-.75-1.8-1.95-1.8a4.86,4.86,0,0,0-1.88.45l-.15-.53a4.86,4.86,0,0,1,2.1-.52,2.5,2.5,0,0,1,1.88.67,2.44,2.44,0,0,1,.6,1.73v3.75h-.53v-1a3,3,0,0,1-2.32,1.05Zm0-.52a2.05,2.05,0,0,0,2.25-1.88v-.67a6.86,6.86,0,0,0-2-.3c-1.27,0-2,.6-2,1.42a1.65,1.65,0,0,0,1.73,1.43Zm4.87.37V82.42h.6V91Zm9.6.15a3.17,3.17,0,0,1-3.3-3.52V82.8h.6v4.72c0,2,1.05,3.08,2.7,3.08s2.7-1,2.7-3V82.8h.6v4.72c0,2.33-1.35,3.6-3.3,3.6Zm5.48-.15V85h.6V86.1a2.32,2.32,0,0,1,2.1-1.28,2.24,2.24,0,0,1,2.32,2.48V91h-.6v-3.6a1.81,1.81,0,0,0-1.87-2,2.05,2.05,0,0,0-2,2.17V91ZM170,91V85h.6v6Zm-.07-7.5v-.82h.67v.82Zm4.87,7.58L172.14,85h.67l2.25,5.33L177.31,85h.6l-2.62,6.08Zm7.13.07A2.92,2.92,0,0,1,179,88a3,3,0,0,1,2.77-3.15c1.65,0,2.7,1.35,2.7,3.15v.23h-4.87A2.34,2.34,0,0,0,182,90.6a2.77,2.77,0,0,0,2-1l.37.38a3.12,3.12,0,0,1-2.47,1.12Zm-2.25-3.37h4.27a2.2,2.2,0,0,0-2.1-2.33A2.26,2.26,0,0,0,179.64,87.75ZM186.16,91V85h.6V86.7a2.75,2.75,0,0,1,2.63-1.8v.6h-.08c-1.35,0-2.55,1-2.55,3V91Zm6.53.15a3.9,3.9,0,0,1-2.4-.9l.3-.45a3.35,3.35,0,0,0,2.1.83c.82,0,1.42-.45,1.42-1.2s-.75-1-1.57-1.2c-1-.3-2-.6-2-1.65a1.75,1.75,0,0,1,2-1.65,3.66,3.66,0,0,1,2.1.67l-.3.45a3.26,3.26,0,0,0-1.8-.6c-.82,0-1.35.45-1.35,1s.83.9,1.65,1.2c1,.3,2,.6,2,1.73a1.82,1.82,0,0,1-2,1.72Zm3.9-.15V85h.6v6Zm-.08-7.5v-.82h.68v.82Zm4.8,7.65a1.53,1.53,0,0,1-1.65-1.65v-3.9h-.82v-.52h.82v-2h.6v2h2.1v.52h-2.1v3.9a1.1,1.1,0,0,0,1.2,1.2,2.23,2.23,0,0,0,.9-.22V91a4.67,4.67,0,0,1-1.05.15Zm3.38,1.8a3.39,3.39,0,0,1-1.2-.22l.22-.53a2.08,2.08,0,0,0,1,.23c.6,0,1.05-.38,1.42-1.43l-2.85-5.92h.68l2.47,5.32,2.1-5.32h.6l-2.55,6.22c-.45,1.2-1.05,1.65-1.87,1.65Zm9.6-2V85h.6v6Zm-.08-7.5v-.82h.68v.82Zm2.85,7.5V85h.6V86.1a2.34,2.34,0,0,1,2.1-1.28,2.25,2.25,0,0,1,2.33,2.48V91h-.6v-3.6a1.81,1.81,0,0,0-1.88-2,2.05,2.05,0,0,0-2,2.17V91Zm10.65,0V82.72h3.38a2.93,2.93,0,0,1,2.25.83,2.28,2.28,0,0,1,.6,1.57,2.34,2.34,0,0,1-2.33,2.33L234.24,91h-.75l-2.55-3.37h-2.63V91Zm.6-3.9H231c1.35,0,2.33-.67,2.33-1.87s-.83-1.8-2.33-1.8h-2.77v3.67Zm9.83,4.05a2.25,2.25,0,0,1-2.33-2.47V85h.6v3.6a1.82,1.82,0,0,0,1.88,2,2.06,2.06,0,0,0,2-2.18V85h.6v6h-.6v-1a2.3,2.3,0,0,1-2.17,1.2Zm6.75,0a3.9,3.9,0,0,1-2.4-.9l.3-.45a3.35,3.35,0,0,0,2.1.83c.82,0,1.42-.45,1.42-1.2s-.75-1-1.57-1.2c-1-.3-2-.6-2-1.65a1.75,1.75,0,0,1,1.95-1.65,3.66,3.66,0,0,1,2.1.67l-.3.45a3.26,3.26,0,0,0-1.8-.6c-.82,0-1.35.45-1.35,1s.83.9,1.65,1.2c1,.3,1.95.6,1.95,1.73a1.82,1.82,0,0,1-2,1.72Zm5.77,0a3.93,3.93,0,0,1-2.4-.9l.3-.45a3.37,3.37,0,0,0,2.1.83c.83,0,1.43-.45,1.43-1.2s-.75-1-1.58-1.2-2-.6-2-1.65a1.74,1.74,0,0,1,1.95-1.65,3.68,3.68,0,0,1,2.1.67l-.3.45a3.28,3.28,0,0,0-1.8-.6c-.83,0-1.35.45-1.35,1s.82.9,1.65,1.2,1.95.6,1.95,1.73a1.83,1.83,0,0,1-2,1.72Zm3.9-.15V85h.6v6Zm-.07-7.5v-.82h.67v.82Zm4.65,7.65a2,2,0,0,1-2.25-1.87c0-1.28,1.05-2,2.55-2a8.21,8.21,0,0,1,1.95.22V87.3c0-1.2-.75-1.8-1.95-1.8a4.86,4.86,0,0,0-1.88.45l-.22-.53a4.79,4.79,0,0,1,2.1-.52,2.49,2.49,0,0,1,1.87.67,2.4,2.4,0,0,1,.6,1.73v3.75h-.52v-1a2.8,2.8,0,0,1-2.25,1.05Zm0-.52a2.05,2.05,0,0,0,2.25-1.88v-.67a6.86,6.86,0,0,0-2-.3c-1.27,0-1.95.6-1.95,1.42A1.56,1.56,0,0,0,259.14,90.6Z"/><g id="g439294"><g id="g23"><g class="cls-3"><path id="path21" class="cls-4" d="M25.7,24.15,22,24.22l-3.68.08c-.07,0-.07,0-.07-.08A9.22,9.22,0,0,1,18,23.1a5.18,5.18,0,0,0-.6-1.5c-.37-.6-.67-1.2-1.05-1.8s-.67-1.28-.9-1.73a11,11,0,0,1-.52-1.65,8.21,8.21,0,0,1-.15-2,3,3,0,0,1,.15-.82,5.47,5.47,0,0,1,.67-1.5A3.78,3.78,0,0,1,16.62,11a10,10,0,0,1,1.2-.82,7.33,7.33,0,0,1,1.35-.6,8.3,8.3,0,0,1,1.2-.38,1.63,1.63,0,0,1,.38-.29s0-.08.07-.08a.27.27,0,0,1,.23-.08h.22c.08,0,.15-.07.23-.15a.62.62,0,0,1,.22-.15c.08,0,.15-.07.23,0a.26.26,0,0,1,.22.08c.08.08.15.08.3.08h.23a.26.26,0,0,0,.22-.08.24.24,0,0,0,.15-.08.27.27,0,0,1,.23.08c.07.08.15.15.15.23a2.24,2.24,0,0,1,.37.67,8.31,8.31,0,0,1,.53,1.5c.15.6.3,1.12.37,1.5a2,2,0,0,1,.08.6.07.07,0,0,0,.07.07c.15,0,.38-.07.53-.07V12.9c0-.08.07-.08.07-.15l.08-.08V12.3c0-.08,0-.08.07-.08h.15l.08-.07c0-.08-.08-.08-.08-.15s-.07-.15,0-.23a.28.28,0,0,1,.08-.15.11.11,0,0,0,0-.15c0-.07-.08-.07-.08-.15s-.07-.15-.07-.3a.62.62,0,0,0-.08-.37c0-.08,0-.15.08-.15s.07-.08.15-.08v-.3c0-.07,0-.15.07-.15S26,9.9,26,9.82a.24.24,0,0,1-.08-.15c-.07-.07-.15-.15-.15-.22V9.22c.08-.07.08-.07.15-.07V8.62c0-.07.08-.07.23-.07h.22A1.07,1.07,0,0,1,26,8.32a.76.76,0,0,1-.15-.45.07.07,0,0,1,.07-.07.42.42,0,0,1-.37-.45h0a.3.3,0,0,1,.07-.23c.08-.07.08-.15.15-.15s-.15-.07-.22-.15a.36.36,0,0,1,0-.52c.07-.08.15-.15.22-.15A.17.17,0,0,1,25.62,6a.29.29,0,0,1-.07-.23.57.57,0,0,1,.15-.3.4.4,0,0,1,.3-.15V5a.46.46,0,0,1,.07-.3.42.42,0,0,1,.3-.15l-.07-.15.07-.23a7.58,7.58,0,0,1,.15-.82,3.67,3.67,0,0,0,.08-.75c0-.08-.08-.08-.15-.08h-.3a1.38,1.38,0,0,0-.38.15c-.07,0-.15.08-.22.08s-.15,0-.15-.08A1.51,1.51,0,0,1,25.32,2v-.6a.24.24,0,0,1,.08-.15.37.37,0,0,1,.22.07,1.17,1.17,0,0,1,.53,0,.86.86,0,0,0,.37.07c.08,0,.08,0,.08-.07a.53.53,0,0,0-.08-.3A1.14,1.14,0,0,1,26.37.6a1.38,1.38,0,0,1-.15-.38c0-.07-.07-.07,0-.15L26.3,0H28C28,0,28,0,28,.07s0,.08-.07.15-.08.3-.15.6-.08.38-.15.45,0,.15.07.15a.62.62,0,0,0,.38-.07c.15-.08.37-.08.37-.15h.15c.08,0,.08.07.08.15v1.2c0,.07,0,.15-.08.15a.24.24,0,0,1-.15-.08c-.15-.07-.22-.07-.37-.15l-.3-.15h-.08a1.18,1.18,0,0,0-.22.45v.61a4.08,4.08,0,0,0,.15,1c0,.07,0,.07.07.07s.15.08.23.15.07.15.07.3V5a.4.4,0,0,1,.3.15.57.57,0,0,1,.15.3v.15c0,.08-.07.08-.07.15s.15.08.22.15a.27.27,0,0,1,.08.23V6.3c0,.07-.08.07-.08.15s.08.07.15.15.08.15.08.22a.27.27,0,0,1-.08.23c-.07.07-.07.15-.15.15a.24.24,0,0,1,.08.15V7.5a.44.44,0,0,1-.08.3.4.4,0,0,1-.3.15L28.4,8v.3c0,.08-.08.08-.08.15a1,1,0,0,1,.3.23.13.13,0,0,1,0,.22c0,.08-.07.08-.07.15s-.08.08-.08.15,0,.15.08.15a.25.25,0,0,0,.07.15V9.6a.07.07,0,0,1-.07.07.62.62,0,0,0,.07.23c0,.07.08.15.08.22s-.08.15-.08.23h-.37a.07.07,0,0,0,.07.07c.08,0,.08.08.15.08s.08.07.08.22a.66.66,0,0,1-.08.38c-.07.07-.07.15-.15.22a.25.25,0,0,0-.07.15c.07,0,.22.08.22.15a.14.14,0,0,1,0,.23c-.07.07-.15.15-.15.22s-.07.15-.15.23a.29.29,0,0,1-.07.15h.37a.15.15,0,0,1,.15.15.26.26,0,0,0,.08.22c0,.08.07.08.07.15h.08l.15.08.22.08L29.6,12c.15-.52.3-1.05.45-1.5a7.45,7.45,0,0,1,.52-1.27,2.49,2.49,0,0,1,.38-.6L31,8.55a.08.08,0,0,0,.08-.08h.22c.08,0,.08,0,.15.08h.23s0-.08.07-.08a.72.72,0,0,1,.9.23h.15a.51.51,0,0,1,.3.15c.08.07.15.07.3.07a6.71,6.71,0,0,0,.83.3c.45.23,1,.45,1.65.75a8.69,8.69,0,0,1,1.8,1.28,6.31,6.31,0,0,1,.9,1.12,3.55,3.55,0,0,1,.45,1.2,2.49,2.49,0,0,1,.07.75v.9a8.15,8.15,0,0,1-.52,2.7,11.58,11.58,0,0,1-.9,1.88L37,20.92c-.22.38-.37.75-.6,1.21a4.15,4.15,0,0,0-.37,1.2,7.43,7.43,0,0,1-.23,1,.16.16,0,0,1,.15.16.44.44,0,0,1-.07.52.42.42,0,0,1-.3.15c0,.23-.08.38-.08.6v.53c0,.07,0,.07.08.07s.15.07.22.07.15.23.08.31a.44.44,0,0,1-.08.3.4.4,0,0,1-.3.15c-.15,0-.3-.08-.3-.23a.24.24,0,0,1-.15.08c-.15.07-.22,0-.37-.08s-.08-.15-.15-.22a.31.31,0,0,1-.3.15.42.42,0,0,1-.3-.08.37.37,0,0,1-.15-.3c0,.08-.08.15-.15.23a.3.3,0,0,1-.23.07.28.28,0,0,1-.22-.07c-.08-.08-.15-.16-.15-.23a.43.43,0,0,1-.38.23.26.26,0,0,1-.22-.08c-.08-.07-.15-.15-.15-.22s-.08.15-.15.22a.27.27,0,0,1-.23.08.26.26,0,0,1-.22-.08l-.15-.15c0,.07-.08.07-.15.15a.47.47,0,0,1-.53-.15h0c0,.07-.07.07-.15.15a.45.45,0,0,1-.52-.15v-.07a.65.65,0,0,1-.3.15.27.27,0,0,1-.23-.08l-.15-.15a.15.15,0,0,1-.15.15c-.07,0-.15.08-.22.08s-.38-.15-.38-.3c0,.07-.07.15-.15.22a.28.28,0,0,1-.22.07.42.42,0,0,1-.45-.37h0a.65.65,0,0,1-.15.3.43.43,0,0,1-.75-.22h0a.65.65,0,0,1-.15.3.43.43,0,0,1-.75-.23h0a.4.4,0,0,1-.15.3c-.08.08-.15.15-.3.08a.42.42,0,0,1-.3-.08.37.37,0,0,1-.15-.3.57.57,0,0,1-.15.3c-.08.08-.15.08-.3.08a.43.43,0,0,1-.38-.23.15.15,0,0,1-.15.15.26.26,0,0,1-.22.08.43.43,0,0,1-.38-.23c0,.08-.07.15-.15.23a.28.28,0,0,1-.22.07.3.3,0,0,1-.23-.07l-.15-.16a.36.36,0,0,1-.15.23.28.28,0,0,1-.22.07.3.3,0,0,1-.23-.07l-.15-.15c0,.08-.07.15-.15.22a.26.26,0,0,1-.22.08.27.27,0,0,1-.23-.08l-.15-.14c0,.07-.07.14-.15.22a.28.28,0,0,1-.22.07.3.3,0,0,1-.23-.07c-.07-.08-.07-.15-.15-.22s-.07.14-.15.22c.6-.22.53-.15.38-.15a.3.3,0,0,1-.23-.07l-.15-.16a.36.36,0,0,1-.15.23.28.28,0,0,1-.22.07.31.31,0,0,1-.3-.22c0,.08-.08.15-.15.22a.27.27,0,0,1-.23.08.42.42,0,0,1-.3-.15A.16.16,0,0,1,19,27a.28.28,0,0,1-.22.07.3.3,0,0,1-.23-.07c-.07,0-.07-.08-.15-.15s-.07.15-.15.22a.26.26,0,0,1-.22.08.42.42,0,0,1-.3-.08.37.37,0,0,1-.15-.3.28.28,0,0,1,.07-.22c0-.08.08-.08.15-.15l.08-.08V25.2c0-.08,0-.08-.08-.08a.16.16,0,0,1-.15-.15.36.36,0,0,1,0-.52c.08-.08.15-.15.23-.15l3.75-.08Z"/></g></g><path id="path25" class="cls-5" d="M25.35,4.8c0-.15.15-.9.22-1.28a4.64,4.64,0,0,0,.08-.75c0-.07-.08-.15-.3-.07a4.2,4.2,0,0,1-.6.15c-.08,0-.15.08-.08-.08v-.9c0-.07.08-.07.15,0s.53.23.6.23.23,0,.23-.15a4.6,4.6,0,0,0-.3-1c-.08-.08,0-.08.07-.08h1c.07,0,.07,0,0,.08a3,3,0,0,0-.23,1c0,.23,0,.3.16.3s.45-.15.6-.15.22-.07.22,0v.9c-.15-.07-.15-.07-.22-.15a5.26,5.26,0,0,0-.53-.15c-.15-.07-.3-.07-.3.08v1c0,.38.08.75.08.9H26c0-.15-.08-.22-.3-.22a.35.35,0,0,0-.38.37V4.8h0"/><path id="path27" class="cls-5" d="M25.8,4.28a.31.31,0,0,1,.3-.3.32.32,0,0,1,.3.3.32.32,0,0,1-.3.3.33.33,0,0,1-.3-.3m.75.22a.3.3,0,1,0,.3-.3c-.15.08-.3.15-.3.3m-1.43.15a.33.33,0,0,1,.31-.3.31.31,0,0,1,.29.3.3.3,0,1,1-.6,0m-.37.68c0-.15.15-.23.3-.23a.3.3,0,0,1,0,.6.48.48,0,0,1-.3-.37m-.15.75a.3.3,0,1,1,.3.3.32.32,0,0,1-.3-.3m.07.67a.33.33,0,0,1,.3-.3.31.31,0,0,1,.3.3.3.3,0,0,1-.6,0m.38.6a.3.3,0,1,0,.3-.3c-.15.08-.3.15-.3.3m.52.53a.33.33,0,0,1,.3-.3.31.31,0,0,1,.3.3.3.3,0,1,1-.6,0m.68,0a.3.3,0,1,0,.3-.3.32.32,0,0,0-.3.3m.52-.38a.33.33,0,0,1,.3-.3.3.3,0,1,1-.3.3m.3-.6a.32.32,0,0,1,.3-.3c.15,0,.38.15.38.3a.32.32,0,0,1-.3.3.35.35,0,0,1-.38-.3m.15-.6a.33.33,0,0,1,.3-.3.31.31,0,0,1,.3.3.3.3,0,1,1-.6,0m-.07-.6a.3.3,0,1,1,.3.3.32.32,0,0,1-.3-.3M27,5.1a.3.3,0,1,1,.3.3c-.15-.07-.3-.15-.3-.3"/><path id="path29" class="cls-5" d="M26.25,6.9c0-.67.37-1.27.82-1.27s.83.52.83,1.27-.38,1.28-.83,1.28-.82-.6-.82-1.28m-1.8,6.75a17.81,17.81,0,0,0-.52-2.47c-.23-.9-.68-2.26-.91-2.18a10.88,10.88,0,0,0,.16,3c.15.9.37,1.95.37,1.95l.9-.3Zm4.35,0a17.81,17.81,0,0,1,.52-2.47c.23-.9.68-2.26.91-2.18a10.88,10.88,0,0,1-.16,3c-.15.9-.37,1.95-.37,1.95l-.9-.3ZM20.62,9.23c.08-.08.16-.16.3-.08-.22,2.1.3,4.95,1.58,8.55l-.22.45c-1.5-4-2-7-1.65-8.93m12-.07c0-.15-.3-.23-.3-.15a21.18,21.18,0,0,1-1.5,8.7l.22.45c1.5-4,1.95-7,1.57-9"/><path id="path31" class="cls-4" d="M26.4.68h.15l.08.45L26.7.68h.22a4.13,4.13,0,0,1-.22.89,4.44,4.44,0,0,1-.3-.89M26.85,4H26.7l-.08-.52L26.55,4H26.4a10.93,10.93,0,0,1,.22-1.49c.15,0,.23,1.49.23,1.49M25.43,2.25V2.1L25.87,2,25.43,2V1.8a4.22,4.22,0,0,1,.9.22c0,.08-.9.23-.9.23m2.39-.45V2L27.45,2l.37.08v.15s-.75-.15-.75-.23.75-.22.75-.22"/><path id="path33" class="cls-5" d="M21.3,8.48l1.57-.23a18.06,18.06,0,0,0,.68,4.65,45,45,0,0,0,1.8,5.1,4.6,4.6,0,0,0-.6.6,3.22,3.22,0,0,0-.08,1.13,3.58,3.58,0,0,1-.45-1.05c0-.3.23-.75.23-1s-.08-.45-.23-.45-.52,0-.6.15a1.14,1.14,0,0,0-.15.45l-.07.45s-.08-.6-.08-.82v-1a.34.34,0,0,0-.22-.22h-.22a30.46,30.46,0,0,1-1.43-5,16.28,16.28,0,0,1-.15-2.85m7.5,9.59a1,1,0,0,1,.3.3,1.85,1.85,0,0,1,.3.9v.53s.37-.3.37-.6A3,3,0,0,0,29.7,18c-.08-.15-.08-.3.07-.3s.3-.08.45.07a3.12,3.12,0,0,1,.38.68.79.79,0,0,1,.07.3,4.1,4.1,0,0,0,.08-1.13,1.67,1.67,0,0,1-.08-.82c.08-.15.16-.3.23-.3a1.94,1.94,0,0,1,.3.07s.9-2.92,1.12-3.82a24.77,24.77,0,0,0,.38-4.28l-1.35-.22a16.75,16.75,0,0,1-.6,4.28,26.4,26.4,0,0,1-1.95,5.55"/><path id="path35" class="cls-4" d="M21.6,16.57a1,1,0,0,1,.15-.44.6.6,0,0,1-.37-.6.53.53,0,0,1,.15-.38c-.23,0-.45-.3-.45-.6a.75.75,0,0,1,.07-.38.62.62,0,0,1-.3-.52A1.14,1.14,0,0,1,21,13.2a.5.5,0,0,1-.37-.53.7.7,0,0,1,.07-.37.54.54,0,0,1-.22-.45.57.57,0,0,1,.15-.38.53.53,0,0,1-.15-.37.44.44,0,0,1,.22-.45.54.54,0,0,1-.22-.45.57.57,0,0,1,.15-.38c-.15-.07-.15-.3-.15-.45A.53.53,0,0,1,20.63,9a.43.43,0,0,1-.08-.3A.51.51,0,0,1,21,8.17a.5.5,0,0,1,.45.53c0,.15-.07.22-.15.37a.44.44,0,0,1,.08.3.63.63,0,0,1-.15.38.64.64,0,0,1,.15.45.66.66,0,0,1-.23.45.53.53,0,0,1,.23.45.57.57,0,0,1-.15.37.68.68,0,0,1,.07.75.55.55,0,0,1,.23.45.6.6,0,0,1-.15.38c.22,0,.45.3.45.6a.62.62,0,0,1-.08.37.64.64,0,0,1,.3.53.57.57,0,0,1-.15.38c.22,0,.45.29.45.6a.79.79,0,0,1-.15.44.6.6,0,0,1,.37.6c0,.16,0,.31-.07.38.3,0,.45.3.45.6s-.23.6-.45.6-.45-.3-.45-.6a.62.62,0,0,1,.07-.38.58.58,0,0,1-.52-.6"/><path id="path37" class="cls-5" d="M22.12,9.45c0,.15-.07.22-.07.3a.37.37,0,0,0-.6,0,.44.44,0,0,1-.08-.3c0-.3.16-.53.38-.53a.7.7,0,0,1,.37.53m-.82.82a.38.38,0,1,1,.75,0,.35.35,0,0,1-.15.3.29.29,0,0,0-.22-.07.46.46,0,0,0-.3.07.74.74,0,0,1-.08-.3"/><path id="path39" class="cls-5" d="M22.12,10.27a.41.41,0,0,1-.22.38h-.15a.25.25,0,0,0-.22.08.43.43,0,0,1-.23-.38.42.42,0,0,1,.38-.45h0c.22-.08.45.08.45.38m0,.82a.63.63,0,0,1-.15.38c-.08,0-.15-.08-.23-.08a.44.44,0,0,0-.3.08.45.45,0,0,1,.15-.83.5.5,0,0,1,.53.45m-.83.83a.42.42,0,0,1,.38-.45c.22,0,.37.15.37.45a.42.42,0,0,1-.37.45h0a.48.48,0,0,1-.38-.45h0m0,.82a.42.42,0,0,1,.38-.45h0c.22,0,.37.15.37.45a.42.42,0,0,1-.37.45.47.47,0,0,1-.38-.45h0m.83.83a.65.65,0,0,1-.15.3H21.9a.38.38,0,0,0-.3.15.51.51,0,0,1-.3-.38.42.42,0,0,1,.38-.45.38.38,0,0,1,.45.38m0,.82A.42.42,0,0,1,22.5,14h0c.23,0,.38.15.38.45a.42.42,0,0,1-.38.45h0a.47.47,0,0,1-.37-.45m0,.83a.42.42,0,0,1,.37-.45c.23,0,.38.15.38.45h0a.42.42,0,0,1-.38.45.49.49,0,0,1-.37-.45m0,1.65a.42.42,0,0,1,.37-.45h0c.23,0,.38.15.38.45a.42.42,0,0,1-.38.45.49.49,0,0,1-.37-.45h0"/><path id="path41" class="cls-5" d="M23,16.88a.38.38,0,1,1,.75,0h0a.46.46,0,0,1-.38.44h0a.47.47,0,0,1-.37-.44"/><path id="path43" class="cls-4" d="M29,16.57a.73.73,0,0,0,.15.38.6.6,0,1,0,.67.6c0-.15-.07-.22-.15-.38a.63.63,0,0,0,.53-.6.66.66,0,0,0-.3-.52h.15a.59.59,0,0,0,.6-.6.56.56,0,0,0-.38-.52h.08a.59.59,0,0,0,.6-.6.6.6,0,0,0-1.2,0,.56.56,0,0,0,.37.52h-.07a.59.59,0,0,0-.6.6.62.62,0,0,0,.3.52h-.15a.65.65,0,0,0-.6.6m1.2-3.29a.63.63,0,0,1,.44-.53.41.41,0,0,1-.22-.38.54.54,0,0,1,.45-.52.45.45,0,0,1-.22-.45A.51.51,0,0,1,31,11c-.15-.08-.15-.23-.15-.38a.41.41,0,0,1,.3-.45A.49.49,0,0,1,31,9.45l.08-.08a.42.42,0,0,1-.08-.3V9c-.07-.08-.07-.15-.07-.3A.53.53,0,1,1,32,8.7v.07a.45.45,0,0,1-.08.6.44.44,0,0,1,.08.3.47.47,0,0,1-.3.45.46.46,0,0,1,.22.45.47.47,0,0,1-.37.45c.15.08.15.23.15.38a.54.54,0,0,1-.45.52.46.46,0,0,1,.22.45.55.55,0,0,1-.45.53.45.45,0,0,1,.23.45.51.51,0,0,1-.53.52.65.65,0,0,1-.45-.6"/><path id="path45" class="cls-5" d="M29.47,16.88a.42.42,0,0,1,.38-.45c.22,0,.38.15.38.45a.42.42,0,0,1-.38.44h0c-.15-.07-.38-.22-.38-.44h0"/><path id="path47" class="cls-5" d="M30.3,16.88a.42.42,0,0,1,.38-.45c.22,0,.37.15.37.45a.47.47,0,0,1-.37.44c-.16-.07-.38-.22-.38-.44h0m0-1.66a.41.41,0,0,1,.38-.44c.22,0,.37.15.37.44h0a.42.42,0,0,1-.37.45h0c-.16-.07-.38-.22-.38-.45h0m0-.82a.42.42,0,0,1,.38-.45h0c.22,0,.37.15.37.45a.42.42,0,0,1-.37.45h0c-.16-.08-.38-.22-.38-.45h0m.82-2.47a.42.42,0,0,1,.38-.45c.22,0,.37.15.37.45h0a.42.42,0,0,1-.37.45h0a.48.48,0,0,1-.38-.45"/><path id="path49" class="cls-5" d="M30.3,13.58a.43.43,0,0,1,.38-.46h0a.43.43,0,0,1,.37.46h0a.42.42,0,0,1-.37.45h0c-.16-.08-.38-.23-.38-.45h0m.82-1.65a.42.42,0,0,1,.38-.45h0c.22,0,.37.15.37.45a.49.49,0,0,1-.37.45h0c-.15-.08-.38-.23-.38-.45m0-1.73a.43.43,0,0,1,.38-.45.42.42,0,0,1,.37.45h0a.42.42,0,0,1-.37.45.49.49,0,0,1-.38-.45h0"/><path id="path51" class="cls-5" d="M32,10.27a.43.43,0,0,1-.22.38c-.16-.08-.3-.08-.38,0-.15-.08-.15-.22-.15-.38a.42.42,0,0,1,.37-.45c.23,0,.38.16.38.45m-.83-.74c0-.3.16-.53.38-.53s.37.22.37.53c0,.15,0,.22-.07.3,0-.16-.15-.23-.3-.23a.4.4,0,0,0-.3.15.26.26,0,0,1-.08-.22m.45-1.35c.23,0,.38.22.38.6a.42.42,0,0,0-.38-.23c-.22,0-.37.23-.45.45V8.78c0-.38.23-.6.45-.6m-4.05,15.3a12.24,12.24,0,0,1-2.32-2,3.4,3.4,0,0,1-.45-2.1c.15-.22.15-.37,0-.37s-.45.15-.6.67a2.92,2.92,0,0,0,.15,1.2,3.08,3.08,0,0,1,.22.6,4,4,0,0,1-.9-1.12,2.65,2.65,0,0,1-.15-1.43c.38-.67.23-.67-.07-.67a1.09,1.09,0,0,0-.38.3,2.14,2.14,0,0,0-.07,1A1.74,1.74,0,0,1,23,20a3.11,3.11,0,0,1-.52-1.05c-.08-.45.07-1.2,0-1.5a.16.16,0,0,0-.3-.07A2.18,2.18,0,0,0,22,18.38a4.06,4.06,0,0,0,.38,1.35c.37.45.9,1.12.9,1.12a8.33,8.33,0,0,1-1.65-2,7.42,7.42,0,0,0-1.35-2.17c-.53-.3-1-.38-1.05-.08a5,5,0,0,1,1.05.83c.3.37,1.05,1.57,1.05,1.57s-.08.08-.22,0a10.71,10.71,0,0,0-1.28-1.8,2.65,2.65,0,0,0-1.27-.67c-.38,0-.6.07-.45.22a13.4,13.4,0,0,1,1.2.9,8.1,8.1,0,0,0,1,1.13l.9.67s-.15.08-.75-.3a6.44,6.44,0,0,0-1-1c-.22-.16-1.12-.23-1.05.15s.6.3.83.45,1,.52,1,.52-1,0-1.12.15c-.3.45-.08.53-.08.53a1.17,1.17,0,0,1,.6-.23,17.62,17.62,0,0,1,1.88.45A6.6,6.6,0,0,0,20,20.18c-.23.07-.38.45-.23.52a2.41,2.41,0,0,1,.68-.22,9.56,9.56,0,0,1,1.35.3,2,2,0,0,0-.75.22,2.28,2.28,0,0,0-.08.53s.68-.08,1.13-.08a7.8,7.8,0,0,1,2.32.75c.38.23,2.78,1.58,2.78,1.58l.3-.3Zm-1.27-1.13s1-.67,1.12-1.12a9.2,9.2,0,0,0,.08-2c0-.15,0-.15.07-.22.23-.08.45.15.53.52a2.18,2.18,0,0,1,.07,1,3.05,3.05,0,0,1-.15.75,4.74,4.74,0,0,0,.83-1.05A3.62,3.62,0,0,0,29,19.05c-.08-.15-.22-.45-.15-.52s.3-.08.37.07a2,2,0,0,1,.23.9c0,.15-.08.75-.08.75a2.32,2.32,0,0,0,.45-.82,3.81,3.81,0,0,0,.08-1.28c-.08-.3-.22-.6,0-.67s.37.22.45.67a3,3,0,0,1-.15,1.43l-.38.75a12.2,12.2,0,0,0,.9-1.5,4.84,4.84,0,0,1,1-1.65c.45-.38.53-.45.75-.45a1.48,1.48,0,0,1,.53.15,4.65,4.65,0,0,0-.83.75,10,10,0,0,0-.67,1.05l-.53.75a3.5,3.5,0,0,0,.75-.9,9.44,9.44,0,0,1,.9-1.28,2.42,2.42,0,0,1,1.2-.45,2,2,0,0,1,.53.23,4.59,4.59,0,0,0-.83.45c-.3.3-1.05,1.12-1.35,1.35a9.63,9.63,0,0,0-.82.75s.45-.3.82-.6.6-.6,1-.68a4.57,4.57,0,0,1,1.05.23,1.75,1.75,0,0,0-.68.15c-.22.15-.75.52-.9.6l-.45.22a2.16,2.16,0,0,1,.68,0c.15.08.3.53.3.53a2.07,2.07,0,0,0-1.35.07c-.6.3-2.4,1-2.4,1a14.12,14.12,0,0,1,1.65-.53c.22-.07.9-.22,1.12,0a.74.74,0,0,1,.15.45,3.41,3.41,0,0,0-1.12-.15,2.86,2.86,0,0,0-.75.3s.67-.07.75.08a2,2,0,0,1,.22.6c0,.07-.15-.08-.52-.15a2.74,2.74,0,0,0-1.58,0c-.6.22-2.55,1.12-2.55,1.12l-.52-.45ZM32,18.68a.24.24,0,0,0,.15-.08l.75-.82a10.25,10.25,0,0,1,1.13-.9,5.54,5.54,0,0,0-1.2.82,10.29,10.29,0,0,1-.83,1Zm-1.35,1.5s1-.53,1.27-.75a7.78,7.78,0,0,1,1.05-.68,3.33,3.33,0,0,1,.83-.22,5.33,5.33,0,0,0-1.35.67,8.33,8.33,0,0,1-1.35.83l-.45.15Zm1.12-.3a6.5,6.5,0,0,1,.75-.15,6.2,6.2,0,0,1,.68.07,2.29,2.29,0,0,0-.68-.22C32.25,19.65,31.72,19.88,31.72,19.88ZM28.65,21.6a6.81,6.81,0,0,1,1.2-.3,12.09,12.09,0,0,1,1.35.23,5.11,5.11,0,0,0-1.35-.38c-.45.15-1.2.45-1.2.45Zm2.17-.9s.68-.15.83-.15a6,6,0,0,1,.6.08s-.45-.23-.68-.15-.75.22-.75.22Zm-6.67,2.93,1.2-.75.45.22-1.28.75c0,.08-.37-.22-.37-.22Z"/><path id="path53" class="cls-5" d="M27,19.42V19.2c0-.07.07-.37.07-.45V18c0-.07-.07,0-.07,0l-.08,1.43c-.07.07.08,0,.08,0ZM26,20,25.87,20c.08,0,.16-.08.3-.08s.23.08.3.08V20a3.18,3.18,0,0,1-.15.6s-.15.08-.15,0A4.91,4.91,0,0,1,26,20Zm.67-.29c-.07,0-.29-.08-.44-.08a4.33,4.33,0,0,0-.45.08l.07.07c.08,0,.22-.07.3-.07s.3.07.38.07Zm-.44-4.2v.15H26v-.15Zm.22,0v.15h-.15v-.15Zm-.15,0v-.16c0-.07.07,0,.15.08v.07Zm-.3,0v-.16L26,15.3l.08.07v.08c0,.07-.15.07-.15.07Zm.75,4.12h0a1.89,1.89,0,0,0-.6-.15,1.33,1.33,0,0,0-.53.15c-.15-.15-.3-.38-.37-.38s-.38,0-.45.08l-.08.07v-.15a1,1,0,0,0,.16-.3c0-.07,0-.22.07-.22s.23-.07.15-.22a6.75,6.75,0,0,1-.3-1.13c0-.15.08-.22.15-.22S25.05,17,25,17a2.37,2.37,0,0,1-.45-.9,1,1,0,0,1,.15-.75c.07-.07.45-.15.52-.22s0-.08,0-.3-.15-.38-.07-.45,0-.23.07-.15.3.22.3.3.15,0,.08-.08a2.13,2.13,0,0,1-.45-.45c-.08-.15-.15-.75-.23-.9s-.3-.37-.3-.45,0-.22.08-.22.15,0,.15-.08a1.74,1.74,0,0,0-.08-.3c.08,0,.38.08.45.08s0-.23-.07-.3-.23-.3-.23-.38.3-.15.3-.22A.34.34,0,0,0,25,11a1.77,1.77,0,0,1-.23-.6.17.17,0,0,1,.15-.15c.08,0,.15.08.23,0s-.08-.3-.08-.45.15-.22.15-.3-.3-.22-.3-.3,0-.3.08-.3.3.08.3,0-.15-.3-.15-.37,0-.23.07-.23h.23c.07.38.45.45.75.23a.35.35,0,0,0,.45.07,1.24,1.24,0,0,1-.08.45c-.07.15-.15.15-.15.15l.15-.37a.07.07,0,0,0-.07-.08H26.4s.08.3-.07.3-.3-.07-.3-.07-.08.15,0,.15.3.07.3.07a.15.15,0,0,0,.15.15,1,1,0,0,0,.3-.3s0,.15.07.15.15-.22.08-.37a1.5,1.5,0,0,0-.08-.38L27,8.1h.23c.07,0,.22,0,.22.15s-.15.38-.15.45-.15.15-.07.23.22,0,.22.07a1.86,1.86,0,0,1-.15.38c0,.07.23,0,.23,0a.39.39,0,0,1,0,.3c-.08.15-.23.3-.23.37s.3.15.3.23a1.28,1.28,0,0,1-.15.52c-.07.08-.22.23-.22.3a.15.15,0,0,0,.15.15c.07,0,.15,0,.07.08a1.87,1.87,0,0,0-.3.67c0,.15-.07.3,0,.23s.38-.15.45-.08a1.57,1.57,0,0,1-.07.53,2.94,2.94,0,0,0-.3.75c0,.15-.08.45-.08.52l-.15.23-.22.3s0,.15.07.07.15-.22.23-.3.07,0,.07.08-.07.45-.07.45V15a.1.1,0,0,0,.15,0c.07,0,.37.08.37.15s.15.45.08.6-.45.68-.45.83-.08.37,0,.45.22.07.22.15-.07.52-.07.67-.23.53-.15.6a5.26,5.26,0,0,1,.15.53v.22a.57.57,0,0,0-.38,0l.08-1.2v-.07a.11.11,0,0,0,0-.15H27a.8.8,0,0,0-.22.07s.07,0,0,.23a2.25,2.25,0,0,0-.08.6v1Zm-.83-1.27v.75c0,.07.53,0,.53,0s0-.08,0-.08-.3,0-.38,0S26,19,26,18.9s.22-.08.3-.08a1.15,1.15,0,0,1,.3.16v-.53c0-.07,0-.22-.08-.22H26c0,.07.15.07.23.07s.15.08.22.08v.37a3.57,3.57,0,0,0-.37-.07c-.08,0-.08-.08-.08-.15s.3-.08.3-.08a.61.61,0,0,1-.3-.07c-.07,0,0-.15-.07-.15a.28.28,0,0,1-.08.15Zm-.3-8.55s.23.3.3.3a1.8,1.8,0,0,0,.38-.16.55.55,0,0,0,.37.16c.23,0,.45-.16.45-.23V9.6s-.07.3-.15.3h-.07a.78.78,0,0,0,.07-.23c0-.07-.07-.15-.07-.07s-.08.37-.15.37-.15,0-.23-.07-.15,0-.07-.08.07-.15.07-.22-.07,0-.15.07a1.55,1.55,0,0,0-.15.23.72.72,0,0,0,.08-.23c0-.07-.08-.07-.08-.07S26.1,10,26,10s-.15,0-.15-.07l-.07-.15a.1.1,0,0,0-.15,0,.07.07,0,0,0-.08.07Zm-.15.82c0,.08.23.15.23.15h.15v.3c0,.08.07.3.15.3s.15,0,.07-.15-.15-.22-.07-.37.07-.23.07-.3.23-.08.3-.08a.27.27,0,0,1,.23.08l.07.45c0,.07,0,.3-.07.3a.74.74,0,0,1-.38.07c-.07,0-.07.08,0,.08s.53,0,.6-.08.23-.3.15-.37-.07-.15-.07-.23-.08-.15,0-.15l.22-.07s-.3.07-.3,0,.08-.15-.07-.23a.61.61,0,0,0-.3-.07c-.08,0-.15.07-.23.07s-.15.15-.22.15-.22-.07-.3-.07l-.22.22Zm.08,3.08s.07-1.13.07-1.28a1.1,1.1,0,0,1,.15-.52,5.76,5.76,0,0,1,1.13.07c.07.08.22.15.22.22v.16s-.15-.23-.3-.23-.9-.07-1-.07-.08.67-.08.82-.07.75-.07.75c-.08.15-.15.08-.15.08Zm.45-.9v-.3a.29.29,0,0,1,.07-.16h.3a.42.42,0,0,1,.3.08.07.07,0,0,1-.07.08h-.3a.25.25,0,0,0-.15.07c0,.08.15,0,.22,0a.42.42,0,0,1,.3.08c.08,0,.08.15.08.22l-.08.6v-.3c0-.08,0-.37-.07-.37s-.08-.08-.15-.08h-.3c-.08,0,0,.08,0,.15s.15.08.15.08a.41.41,0,0,1,.23.07c.07,0,0,.08,0,.08h-.23a.07.07,0,0,0-.07.07c0,.08,0,.08.07.15s.15,0,.23,0,.07.08.07.08h-.37c-.08,0,0,.15-.08.15S26,13.5,26,13.43c-.16.07-.08-.6-.08-.6Zm.9-.23s-.08.45-.08.52-.07.6-.07.68a.72.72,0,0,0-.08.23.07.07,0,0,0-.07.07s.3-.07.22,0l-.15.15c-.07,0,0,.08-.15,0s-.22-.15-.3-.15h-.3c-.15,0-.15-.07-.22,0s0,.08.07.08.3.07.38.07h.37c.08,0,.23.08.3.08s.23-.08.23-.15.07-.15.07-.23v-.68c0-.15,0-.3.08-.37l.07-.22c0-.08,0-.15-.07-.15s-.15.15-.15.22,0,.37-.08.45v.37c0,.08-.07.3-.07.15v-.37a.88.88,0,0,1,.07-.38c.08-.15,0-.15,0-.22l-.07-.15.07-.08ZM25.57,15a.28.28,0,0,0,.08-.15l.15-.15c0-.08.07-.15,0-.15s-.08-.15-.08-.23l.08-.07a.79.79,0,0,1,.3.07h.37c.08,0,.08.08.08.15s-.45,0-.53,0H26v.23c-.08.15-.23.22-.3.37s-.08-.07-.08-.07Zm.9-.38s.3.38.38.45-.08.15-.15.08-.38-.45-.38-.45a.24.24,0,0,1,.15-.08Zm-1,.6V16.8c0,.3.08.3.08.3l.07-.08v-1.5c0-.07,0-.3-.15-.3Zm1.35.16H27V16a4.57,4.57,0,0,0,.07,1c.08.08,0,.22,0,.3a.07.07,0,0,1,.08.07.28.28,0,0,1-.15.08h-.83a2.5,2.5,0,0,1-.45-.08v-.07a3.36,3.36,0,0,0,.38.07h.52l.15-.15s.08-.07,0-.07-.15.07-.22.07a4.1,4.1,0,0,1-.53.08.33.33,0,0,1-.3-.15V17A.82.82,0,0,0,26,17h.6c.08,0,.08-.07.08-.15l.07-1.5Zm-.52.37h.15v1c0,.07.07-.83.07-.83v-.52c0-.08-.15-.16-.15-.16a3.57,3.57,0,0,0-.37-.07c-.15,0-.15.07-.23.15s0,.53,0,.53v-.08H26V16A.07.07,0,0,0,26,15.9c.23.07.23,0,.23-.15Zm-.83,3.3a.22.22,0,0,0,.08.15c.07.08.07,0,.07-.07A.25.25,0,0,0,25.5,19V17.77c0-.07-.15,0-.15,0s.07,1.28.07,1.28Zm.38-1.27a1.56,1.56,0,0,0,.37.07h.53c.07,0,.07-.07.07-.15h-.3l-.67.07h0Z"/><path id="path55" class="cls-5" d="M26.32,21.68c0-.38-.22-.68-.45-.68s-.44.3-.44.6a.7.7,0,0,0,.37.67,1.15,1.15,0,0,0,.15-.44v-.6a1.33,1.33,0,0,1,.15.6,1.28,1.28,0,0,1-.15.52,1.54,1.54,0,0,0,.38-.67m.6-1a1.27,1.27,0,0,1-.45.45,1.23,1.23,0,0,0,.22-.45c.15-.38.08-.53.08-.53a.08.08,0,0,0-.08.08c0,.08-.15.45-.15.6a1.31,1.31,0,0,0-.22.38.58.58,0,0,0-.3-.3.71.71,0,0,1,.15-.53c.15-.37.52-.52.67-.45s.22.45.08.75m-1.35.3h0a.53.53,0,0,1-.15-.37,1.91,1.91,0,0,0-.31-.38c0,.08.08.15.16.38a1.76,1.76,0,0,1,.07.6v.07c-.22.08-.52-.15-.67-.6s-.08-.75.15-.82.52.15.67.6a1,1,0,0,1,.08.52m.82.75a1.15,1.15,0,0,1,.15-.3c.15-.07.3-.3.3-.22s-.15.22-.22.37-.15.15-.23.15m0-.37s.3-.08.38-.23.22-.37.15-.37a3.06,3.06,0,0,1-.23.3c0,.07-.3.3-.3.3M18,23.7v1.88a43.76,43.76,0,0,1,8.1-.68c4.28.08,9,.6,9,.6v-1a7.09,7.09,0,0,1,.15-.9s-7.95-.53-9.07-.53-8.18.6-8.18.6"/><path id="path57" class="cls-4" d="M35,25.28a.4.4,0,0,1,.38.22.38.38,0,0,1,.3-.15c.22,0,.38.22.38.52s-.16.53-.38.53a.4.4,0,0,1-.37-.23c-.08.08-.16.08-.31.15a.41.41,0,0,1-.37-.22.37.37,0,0,1-.3.15A.48.48,0,0,1,34,26a.57.57,0,0,1-.38.15.51.51,0,0,1-.38-.3.4.4,0,0,1-.37.23.4.4,0,0,1-.38-.3.4.4,0,0,1-.37.22.42.42,0,0,1-.38-.22.57.57,0,0,1-.3.15.4.4,0,0,1-.37-.23.53.53,0,0,1-.3.15.42.42,0,0,1-.38-.22.57.57,0,0,1-.3.15.4.4,0,0,1-.37-.23.42.42,0,0,1-.38.23.48.48,0,0,1-.37-.3c-.08.22-.23.37-.38.37s-.37-.22-.37-.52.15-.53.37-.53a.51.51,0,0,1,.38.3c.07-.22.22-.37.37-.37a.42.42,0,0,1,.38.22.41.41,0,0,1,.37-.22.41.41,0,0,1,.38.22.57.57,0,0,1,.3-.15.4.4,0,0,1,.37.23.57.57,0,0,1,.3-.15.42.42,0,0,1,.38.22.57.57,0,0,1,.3-.15.38.38,0,0,1,.37.3.42.42,0,0,1,.38-.22.48.48,0,0,1,.37.3.43.43,0,0,1,.38-.23.51.51,0,0,1,.38.3.4.4,0,0,1,.37-.22.42.42,0,0,1,.38.22c.07-.07.15-.07.29-.07Zm-7.2-.53a.5.5,0,0,1,.45.53c0,.29-.15.52-.45.52a.35.35,0,0,1-.37-.37c-.07.22-.22.37-.38.37a.5.5,0,0,1-.45-.52c0-.3.16-.53.45-.53a.36.36,0,0,1,.38.38A.4.4,0,0,1,27.82,24.75Zm-1.65,0a.5.5,0,0,1,.45.53c0,.29-.15.52-.45.52a.35.35,0,0,1-.37-.37.4.4,0,0,1-.38.37.48.48,0,0,1-.37-.3.5.5,0,0,1-.38.3.38.38,0,0,1-.37-.3.51.51,0,0,1-.38.3c-.15,0-.3-.08-.3-.22a.4.4,0,0,1-.37.22.32.32,0,0,1-.3-.22.42.42,0,0,1-.38.22c-.15,0-.3-.08-.3-.22a.48.48,0,0,1-.37.3.43.43,0,0,1-.38-.23.48.48,0,0,1-.37.3.37.37,0,0,1-.3-.15.51.51,0,0,1-.38.3.38.38,0,0,1-.3-.15.48.48,0,0,1-.37.3.51.51,0,0,1-.3-.15.42.42,0,0,1-.38.22.38.38,0,0,1-.3-.15.4.4,0,0,1-.37.23.5.5,0,0,1-.45-.53c0-.3.15-.52.45-.52a.38.38,0,0,1,.3.15.4.4,0,0,1,.37-.23.57.57,0,0,1,.3.15.42.42,0,0,1,.38-.22.42.42,0,0,1,.3.15.48.48,0,0,1,.37-.3.4.4,0,0,1,.3.15.51.51,0,0,1,.38-.3.4.4,0,0,1,.37.23.51.51,0,0,1,.38-.3c.15,0,.22.07.3.22a.48.48,0,0,1,.37-.3.32.32,0,0,1,.3.22.42.42,0,0,1,.38-.22c.15,0,.22.08.3.22a.4.4,0,0,1,.75.08.48.48,0,0,1,.37-.3.51.51,0,0,1,.38.3.48.48,0,0,1,.37-.3.36.36,0,0,1,.38.38.47.47,0,0,1,.37-.38Zm-.37.53v0Z"/><path id="path59" class="cls-5" d="M18,25.35c0-.15.15-.22.3-.22s.3.07.3.22-.15.22-.3.22-.3-.07-.3-.22m.67,0c0-.15.16-.22.3-.22s.3.07.3.22-.15.22-.3.22a.34.34,0,0,1-.3-.22m.68-.07c0-.16.15-.23.3-.23s.3.08.3.23-.15.22-.3.22-.3-.08-.3-.22M20,25.2c0-.15.16-.23.3-.23s.3.08.3.23-.15.22-.3.22-.3-.07-.3-.22m.68-.07c0-.16.15-.23.3-.23s.3.08.3.23-.15.22-.3.22-.3-.08-.3-.22m.75,0c0-.16.15-.23.3-.23s.3.08.3.23-.15.22-.3.22-.3-.15-.3-.22m.67-.08c0-.15.16-.22.3-.22s.3.07.3.22-.15.22-.3.22-.3-.07-.3-.22m.75,0c0-.15.16-.22.31-.22s.29.07.29.22-.15.22-.29.22-.31-.15-.31-.22m.68-.08c0-.15.15-.22.3-.22s.3.08.3.22-.15.23-.3.23-.3-.07-.3-.23m.75,0c0-.15.15-.22.3-.22s.3.08.3.22-.15.23-.3.23-.3-.07-.3-.23m.75,0c0-.15.15-.22.3-.22s.3.08.3.22-.15.23-.3.23-.3-.07-.3-.23m.82,0c0-.15.16-.22.3-.22s.3.08.3.22-.15.23-.3.23-.3-.07-.3-.23m.91,0c0-.15.15-.22.29-.22s.3.08.3.22-.15.23-.3.23-.29-.07-.29-.23m.75,0c0-.15.15-.22.29-.22s.31.08.31.22-.16.23-.31.23-.29-.07-.29-.23m.9,0c0-.15.15-.22.29-.22s.31.08.31.22-.16.23-.31.23-.29-.07-.29-.23m.75,0c0-.15.15-.22.3-.22s.3.08.3.22-.16.23-.3.23-.3-.07-.3-.23m.75,0c0-.15.15-.22.3-.22s.29.08.29.22-.15.23-.29.23-.3-.07-.3-.23m.67.08c0-.15.15-.22.3-.22s.3.07.3.22-.15.22-.3.22a.34.34,0,0,1-.3-.22m.68,0c0-.15.15-.22.29-.22s.3.07.3.22-.15.22-.3.22-.29-.07-.29-.22m.67,0c0-.15.15-.22.3-.22s.3.07.3.22-.15.22-.3.22-.3-.07-.3-.22m.75.08c0-.16.15-.23.3-.23s.3.08.3.23-.15.22-.3.22a.27.27,0,0,1-.3-.22m.68.07c0-.15.15-.23.29-.23s.31.08.31.23-.16.22-.31.22a.32.32,0,0,1-.29-.22m.75,0c0-.15.15-.23.3-.23s.3.08.3.23-.16.22-.3.22-.3-.07-.3-.22m.67.08c0-.16.15-.23.3-.23s.3.08.3.23-.15.22-.3.22a.34.34,0,0,1-.3-.22m.68.07c0-.15.15-.22.3-.22s.3.07.3.22-.16.22-.3.22-.3-.15-.3-.22"/><path id="path61" class="cls-4" d="M18.45,23.4c.15,0,.23,0,.3.08a.54.54,0,0,1,.38-.16c.15,0,.22,0,.29.08a.57.57,0,0,1,.38-.15.48.48,0,0,1,.3.07.58.58,0,0,1,.38-.15c.15,0,.22,0,.29.08a.57.57,0,0,1,.38-.15.53.53,0,0,1,.37.15.57.57,0,0,1,.38-.15c.15,0,.22.07.3.07a.6.6,0,0,1,.38-.15c.15,0,.22.08.29.08a.57.57,0,0,1,.38-.15c.15,0,.22.07.3.07a.54.54,0,0,1,.75,0,.6.6,0,0,1,.38-.15.57.57,0,0,1,.37.15.6.6,0,0,1,.38-.15c.22,0,.37.08.37.23,0-.15.22-.23.38-.23s.37.08.37.23-.15.22-.37.22-.38-.07-.38-.22c0,.15-.22.22-.37.22a.57.57,0,0,1-.38-.15.53.53,0,0,1-.37.15.55.55,0,0,1-.38-.15.55.55,0,0,1-.37.15c-.16,0-.23,0-.3-.07a.63.63,0,0,1-.38.15c-.15,0-.22,0-.3-.08a.55.55,0,0,1-.37.15c-.16,0-.23,0-.3-.07a.56.56,0,0,1-.76,0,.57.57,0,0,1-.37.15.44.44,0,0,1-.3-.08.57.57,0,0,1-.37.15.51.51,0,0,1-.31-.07.57.57,0,0,1-.37.15.44.44,0,0,1-.3-.08.57.57,0,0,1-.37.15.51.51,0,0,1-.31-.07.57.57,0,0,1-.37.15c-.22,0-.38-.07-.38-.23S18.23,23.4,18.45,23.4ZM27,23.1c.23,0,.37.08.37.22.08-.07.23-.22.38-.22s.38.08.38.22-.16.23-.38.23-.38-.08-.38-.23a.59.59,0,0,1-.37.23c-.22,0-.38-.08-.38-.23S26.78,23.1,27,23.1Zm1.65,0a.63.63,0,0,1,.38.15.57.57,0,0,1,.37-.15.63.63,0,0,1,.38.15.32.32,0,0,1,.37-.07.57.57,0,0,1,.38.15.42.42,0,0,1,.3-.08,2.76,2.76,0,0,1,.37.08.43.43,0,0,1,.3-.08.63.63,0,0,1,.38.15.46.46,0,0,1,.3-.07.53.53,0,0,1,.37.15.34.34,0,0,1,.38-.08.57.57,0,0,1,.37.15.48.48,0,0,1,.3-.07.57.57,0,0,1,.38.15.53.53,0,0,1,.37-.15.57.57,0,0,1,.38.15.42.42,0,0,1,.3-.08.57.57,0,0,1,.37.15c.08-.07.15-.07.3-.07s.38.07.38.22-.15.23-.38.23a.57.57,0,0,1-.37-.15.55.55,0,0,0-.3-.08.55.55,0,0,1-.38-.15.42.42,0,0,1-.3.08.57.57,0,0,1-.37-.15.63.63,0,0,1-.38.15.57.57,0,0,1-.37-.15.62.62,0,0,1-.38.07.53.53,0,0,1-.37-.15.55.55,0,0,1-.38.08,2.76,2.76,0,0,1-.37-.08.45.45,0,0,1-.31.08.6.6,0,0,1-.37-.15.46.46,0,0,1-.3.07.53.53,0,0,1-.37-.15.45.45,0,0,1-.31.08.55.55,0,0,1-.37-.16c-.07.08-.22.08-.38.08a.6.6,0,0,1-.37-.15.6.6,0,0,1-.38.15c-.22,0-.44-.08-.44-.22s.29-.08.52-.08Z"/><path id="path63" class="cls-5" d="M18,23.7c0-.15.15-.22.3-.22s.3.07.3.22-.15.22-.3.22-.3-.07-.3-.22m.67-.08c0-.15.16-.22.3-.22s.3.08.3.22-.15.23-.3.23-.3-.07-.3-.23m.68,0c0-.15.15-.22.3-.22s.3.08.3.22-.15.23-.3.23a.33.33,0,0,1-.3-.23m.67-.07c0-.15.16-.22.3-.22s.3.07.3.22-.15.22-.3.22-.3-.07-.3-.22m.68-.08c0-.15.15-.22.3-.22s.3.07.3.22-.15.23-.3.23-.3-.08-.3-.23m.75,0c0-.15.15-.22.3-.22s.3.07.3.22-.15.23-.3.23-.3-.15-.3-.23m.67-.07c0-.15.16-.22.3-.22s.3.07.3.22-.15.22-.3.22-.3-.07-.3-.22m.75,0c0-.15.16-.22.31-.22s.29.07.29.22-.15.22-.29.22-.31-.15-.31-.22m.68-.07c0-.16.15-.23.3-.23s.3.08.3.23-.15.22-.3.22-.3-.08-.3-.22m.75,0c0-.16.15-.23.3-.23s.3.08.3.23-.15.22-.3.22-.3-.08-.3-.22m.75,0c0-.16.15-.23.3-.23s.3.08.3.23-.15.22-.3.22-.3-.08-.3-.22m.82,0c0-.16.16-.23.3-.23s.3.08.3.23-.15.22-.3.22-.3-.08-.3-.22m.91,0c0-.16.15-.23.29-.23s.3.08.3.23-.15.22-.3.22-.29-.08-.29-.22m.75,0c0-.16.15-.23.29-.23s.31.08.31.23-.16.22-.31.22-.29-.08-.29-.22m.9,0c0-.16.15-.23.29-.23s.31.08.31.23-.16.22-.31.22-.29-.08-.29-.22m.75,0c0-.16.15-.23.3-.23s.3.08.3.23-.16.22-.3.22a.33.33,0,0,1-.3-.22m.75,0c0-.16.15-.23.3-.23s.29.08.29.23-.15.22-.29.22-.3-.08-.3-.22m.67.07c0-.15.15-.22.3-.22s.3.07.3.22-.15.22-.3.22a.34.34,0,0,1-.3-.22m.68,0c0-.15.15-.22.29-.22s.3.07.3.22-.15.22-.3.22-.29-.07-.29-.22m.67,0c0-.15.15-.22.3-.22s.3.07.3.22-.15.22-.3.22-.3-.07-.3-.22m.75.08c0-.16.15-.23.3-.23s.3.07.3.23-.15.22-.3.22a.27.27,0,0,1-.3-.22m.68.07c0-.15.15-.22.29-.22s.31.07.31.22-.16.22-.31.22a.32.32,0,0,1-.29-.22m.75,0c0-.15.15-.22.3-.22s.3.07.3.22-.16.22-.3.22-.3-.07-.3-.22m.67.08c0-.16.15-.23.3-.23s.3.08.3.23-.15.22-.3.22a.34.34,0,0,1-.3-.22m.68.07c0-.15.15-.22.3-.22s.3.07.3.22-.16.22-.3.22-.3-.15-.3-.22"/><path id="path65" class="cls-4" d="M28.65,13.65a2.76,2.76,0,0,0-.83-.37l-.67-.16a2.34,2.34,0,0,0-.37.75,4,4,0,0,1-.08.68s.22.23.15.38a1.35,1.35,0,0,0-.07.37s.37.15.37.3.22.68.08.9a3.41,3.41,0,0,1-.38.75s.22.15.22.3-.3,1.2-.3,1.2l.3.08s.75-2.18,1-2.78a22.71,22.71,0,0,0,.6-2.4m-5.7,0s.45-.23.82-.37a3.67,3.67,0,0,1,.68-.08,2.34,2.34,0,0,1,.37.75,4,4,0,0,0,.08.68s-.22.22-.15.37a1.39,1.39,0,0,1,.07.38s-.37.22-.37.3-.23.67-.08.9a3.41,3.41,0,0,0,.38.75s-.23.15-.23.3.3,1.2.3,1.2l-.3.07A33,33,0,0,1,23,13.65M25.2,24.08v.29s0,.08.22.08h1.65a.15.15,0,0,0,.15-.15v-.38c-.07,0-.15-.07-.3-.07h-1.5a12.55,12.55,0,0,1,1.58.07.15.15,0,0,1,.07.23c0,.07,0,.22-.15.22H25.27l-.07-.3m-2.48.08v.3s0,.07.23.07,1.65-.07,1.65-.07a.15.15,0,0,0,.15-.15c0-.15,0-.38-.07-.38s-.16-.07-.3-.07l-1.5.07h1.57c.08,0,.15.15.15.23s0,.22-.07.22a11.36,11.36,0,0,1-1.65,0c-.08.08-.15-.22-.15-.22m-2.4.07v.3s0,.08.22.08S22,24.52,22,24.52s.16,0,.08-.15,0-.3-.08-.37-.15-.08-.3-.08L20.4,24h1.43c.07,0,.15.15.15.22a.27.27,0,0,1-.08.23l-1.42.07c-.08,0-.16-.3-.16-.3M18,24.37l.07.3s0,.08.23.08,1.42-.15,1.42-.15.15-.08.08-.15a3.43,3.43,0,0,0-.08-.38c-.07,0-.15-.07-.3,0s-1.27.15-1.27.15l1.42-.07c.08,0,.16.15.16.22a.27.27,0,0,1-.08.23l-1.43.15a3,3,0,0,1-.22-.38m9.75-.3v.3s0,.08.22.15h1.66a.15.15,0,0,0,.15-.15V24c-.08,0-.15-.08-.3-.08H28l1.57.08c.08,0,.08.15.08.22s0,.23-.15.23H27.83a3,3,0,0,0-.08-.38m2.55.08-.07.3s0,.07.22.07,1.42.08,1.42.08a.15.15,0,0,0,.15-.15c0-.15.08-.3,0-.38A.8.8,0,0,0,31.8,24l-1.27-.08,1.35.08c.07,0,.07.15.07.22a.15.15,0,0,1-.15.15,9.58,9.58,0,0,1-1.42-.07c-.08.15-.08-.15-.08-.15m2.33.07-.08.3s0,.08.22.08,1.43.07,1.43.07a.15.15,0,0,0,.15-.15c0-.15.08-.3,0-.37a.73.73,0,0,0-.22-.08L32.85,24a8.57,8.57,0,0,1,1.35.15c.08,0,.08.15.08.22a.16.16,0,0,1-.15.15c-.45,0-1-.07-1.43-.07-.07.07-.07-.23-.07-.23"/><path id="path67" class="cls-5" d="M17.85,20.17s-1.13-.82-1.2-1.12-.3-1-.15-.9a2.33,2.33,0,0,1,.67.75A14.58,14.58,0,0,0,18,20.1,10.66,10.66,0,0,1,17.85,19c0-.3.07-.68.15-.6a1.81,1.81,0,0,1,.3.75,4.52,4.52,0,0,0,0,1,8.3,8.3,0,0,0,.67.76,3.13,3.13,0,0,1-.22-.76c0-.22,0-.37.15-.22a1.83,1.83,0,0,1,.45.75c.08.15.3.68.53.75a6.3,6.3,0,0,0,.6.23s-.45-.3-.53-.53-.15-.52,0-.52.38.22.45.37a1.79,1.79,0,0,0,.45.68,1.31,1.31,0,0,0,.52.3c.08,0-.07-.16-.15-.23s-.15-.45,0-.45.3.38.45.53.83.45.83.45a1.92,1.92,0,0,1-.38-.53c-.07-.15-.07-.3.08-.3s.52.6.6.6.07-.22.07-.37.15-.08.3.07.38.15.38.3a2.32,2.32,0,0,0,.45.45,2.32,2.32,0,0,1-.23-.45c0-.07,0-.3.08-.22s.37.22.37.3.3.3.3.3-.22-.3-.15-.3a.51.51,0,0,1,.38.22c.07.15.37.3.37.3l-.37.08-.38.07-.52.08c-.15,0,.52-.23.52-.23a6,6,0,0,1-.6.08c-.15,0-.37.22-.45.22s-.45.08-.52.08-.08-.3.15-.38l.67-.22a2.64,2.64,0,0,0-.9.15c-.3.15-.45.3-.6.37a2.38,2.38,0,0,0-.75.15c-.07.08-.3.15-.22,0a1.58,1.58,0,0,1,.83-.52.89.89,0,0,0,.37-.15,2.6,2.6,0,0,0-.6.07c-.22.08-.67.45-.9.53s-.37-.15-.22-.3.82-.45.82-.45a2.4,2.4,0,0,0-.9-.08c-.38.08-.75.38-1.05.45s-.6-.07-.52-.3a1.54,1.54,0,0,1,.44-.6l.45-.15a.74.74,0,0,0-.52.08c-.22.15-.45.45-.75.37a.86.86,0,0,1-.75-.3c-.15-.22.15-.37.45-.37h1s-.07-.15-.52-.23-1-.07-1.12-.22a2,2,0,0,1-.6-.53c0-.15-.08-.3.07-.22.08-.08.75,0,.75,0Zm12.75,2a1.34,1.34,0,0,0,.37-.15c.08-.08.08-.22-.07-.15a1.12,1.12,0,0,1-.3.3Zm-.9.07a3,3,0,0,0,.45-.22,1.11,1.11,0,0,0,.22-.3l-.22.22a2.16,2.16,0,0,1-.45.3Zm1.87-.22s.68.07.83.07a5.4,5.4,0,0,1,.9.38l-.68-.45a1.49,1.49,0,0,0-.75-.08,2.62,2.62,0,0,0,.38-.45,1.93,1.93,0,0,0,.08-.59,2,2,0,0,1-.23.59c-.07.23-.52.53-.52.53Zm1-.45.6.07a2.72,2.72,0,0,0,.45.16,3.63,3.63,0,0,0,.9,0l-.45-.08a1.7,1.7,0,0,1-.67-.15A2.77,2.77,0,0,0,32.62,21.6Zm.23-.3s.53-.3.53-.53-.08-.45-.08-.37a1.2,1.2,0,0,1-.07.45,3.11,3.11,0,0,1-.38.45Zm.75-.38.83-.22c.22-.08.82-.23.82-.23a6.13,6.13,0,0,0-.82.16,3.22,3.22,0,0,0-.83.3Zm1.13-.9s.67-.75.75-.9l.3-.67s-.3.45-.38.6S34.73,20,34.73,20Zm-.3-1.35s-.08.83-.08,1-.22.9-.22.9a5.48,5.48,0,0,0,.37-.9c0-.3-.07-1-.07-1Zm-7.28,3.9.53-.3a1.8,1.8,0,0,1,.52-.22l-.23.3.53-.45a.55.55,0,0,1,.22-.08l-.07.45.37-.45a3.63,3.63,0,0,1,.53-.15l-.23.53a3.58,3.58,0,0,1,.53-.45c.15-.08.67-.23.67-.15a1.74,1.74,0,0,1-.3.52.82.82,0,0,1-.22.15,1.54,1.54,0,0,0,.6-.45c.22-.22.38-.3.45-.22S31,22,31,22a1,1,0,0,0,.52-.22,1.74,1.74,0,0,0,.52-.83c.08-.22.23-.45.38-.45a.37.37,0,0,1,.15.45l-.22.53a3.52,3.52,0,0,0,.6-.53,3.71,3.71,0,0,1,.37-.82c.15-.15.3-.22.38-.08s-.08.75-.08.75.45-.3.45-.6a8,8,0,0,1,.08-1.42c.07-.22.15-.53.3-.45a1,1,0,0,1,.22.82,7.57,7.57,0,0,1-.3,1.13s.75-1,.9-1.2.45-1.13.75-.83-.3,1.13-.45,1.35a8.12,8.12,0,0,1-1,.9,4,4,0,0,1,.9-.15,1.49,1.49,0,0,1-1,.75c-.52.08-1.2.23-1.2.23s.53.15.9.22.6.23.6.3a1.23,1.23,0,0,1-1.12.3,12.33,12.33,0,0,0-1.28-.3,6.75,6.75,0,0,1,.9.3c.15.08.45.3.23.45s-1.05-.22-1.43-.22a5.43,5.43,0,0,0-1-.08,2.12,2.12,0,0,1,.59.3c.16.15.16.45,0,.45s-1.12-.52-1.27-.52.38.22.45.3-.08.22-.37.15a5.56,5.56,0,0,1-1.13-.53s.68.45.6.45a2.49,2.49,0,0,1-.75-.07,3.69,3.69,0,0,0-.6-.3s.45.3.38.3h-.53l-.52-.23.37.23h-.52a.87.87,0,0,0-.23.15Z"/><path id="path69" class="cls-5" d="M33.22,9.83l1.43.6.07.29-1.27-.59Zm-.3.67v.9l.75.53Zm-.15,1.73-.07.45.22.75,1.2.52-.45-1.27-.9-.45Zm-.22,1.87-.22.83.67.37Zm-.37,1.43.9.37.07.67-.67.31L32,16.65l-.07-.37Zm-.53,1.35-.15.37.52.23.23-.3-.6-.3Zm-.3.67-.15.37.38.16.15-.38Zm-.22.52.45.23-.23.22Zm2-3.9,1.35.68.3,1.5-1.27-.75Zm1.35-1.12c0,.08.45,1.27.45,1.27l1.28.9-.38-1.42Zm-.6-2.18,1.43.68.45,1.35-1.43-.75C34.35,12.23,33.9,10.87,33.9,10.87Zm1.58-.07.3.45,1,.6-.45-.6Zm.75,1.5,1.12.82.23,1.13-1.13-.83ZM38,13.57l.23,1.2s.3.53.3.45-.08-1-.08-1.05-.45-.6-.45-.6Zm-.52-1.35.22.45s.38.23.3.08Zm-.75,2.25c.07.16.3,1.28.3,1.28l1,1.12-.22-1.57Zm-1.43,1,.15,1.27,1.05.83L36.3,16.2Zm1.8,1.42c0,.08.15,1.2.15,1.2l.38.6.3-.82-.83-1Zm1.13-1.2.3.45-.23.75Zm-2.55,2.18.9.67.07,1.28-.22-.15c.15-.53-.08-1.13-.53-.68l-.22-.15v-1ZM35,17.47l.08.9-.75-.45c.3-.22.52-.44.67-.44ZM19.58,10.65,19,11.92l-1.5.68.6-1.5ZM16,12.45l1.27-.75-.52,1.5-1.28.9Zm-1,.9a4.08,4.08,0,0,0-.22.82,2.33,2.33,0,0,1-.08.45l.38-.3.37-1.27Zm1.5-1.8-.07.23a7,7,0,0,0,1.27-.68,2.39,2.39,0,0,0,.23-.45Zm1.95-1.13-.07.23,1.57-.6.15-.23Zm1.95.08v.9l-.6.3Zm-.9,1.8L19,13.72l1.35-.6.22-1-.07-.23Zm-2.25,1.2-.52,1.42.07.16a12.15,12.15,0,0,0,1.28-.75c0-.08.45-1.5.45-1.5l-1.28.67Zm-1.8,1.42,1.05-.75-.3,1.43-1,1.12Zm-.15,2.7.53,1,.15-.15V16.8l-.68.82Zm1.35-1.5-.15,1.5,1.2-1,.22-1.5c.08,0-1.27,1-1.27,1Zm2-1.5L20,13.87l-.45,1.5-1.12.68a13.64,13.64,0,0,0,.3-1.43Zm2.1-1,.15.75s-.68.45-.6.38Zm-.6,1.8.9-.45.3,1.05-1.05.68L20,16.5Zm-1.5,1.13.52.07.22-.6Zm-1.13,1.12V19a1.52,1.52,0,0,0-.6-.37c-.15,0-.15,0-.15.15v.45l.08.45-.38.15V18.45Zm.6-.37.08,1.27.82-.82-.75-.6ZM21,16.87l.23.45.6-.3-.23-.52Zm.53.75.3.38.3-.22L22,17.33l-.45.3Z"/><path id="path71" class="cls-4" d="M38,52.65c.38.45.16.9-.07,1.28a10.22,10.22,0,0,1-2,2,.93.93,0,0,1-1.27.08l-.22-.68c-2.33-2.77-4.73-5.55-7.2-8.25L19.88,55l-.23.67c-.45.38-.9.15-1.28-.07A10.19,10.19,0,0,1,16.8,54a.93.93,0,0,1-.08-1.27l.6-.23,7.73-7.65c-2.18-2.25-4.35-4.35-6.68-6.45l-2.62,2.78a1,1,0,0,1-1.5.07L11.77,38.7a1.15,1.15,0,0,1,0-1.5l7.8-8a1,1,0,0,1,1.43,0h0l2.47,2.55a1.13,1.13,0,0,1,0,1.5l-2.7,2.77c1.95,2.33,4.13,4.73,6.3,6.9l7.65-7.65a1.44,1.44,0,0,0,.16-1.42L32.4,31.42l-.15-1,1.2-1.28.82.08c4.43,3.6,7.88,8,9.08,13.72l-.6.22c-.52-1-3.15-5.47-4.8-6.37-.38-.22-.83-.08-1.42.3l-7.28,8c2.62,2.47,5.47,5,8.1,7.42l.67.23Z"/><path id="path73" class="cls-5" d="M11.7,38.85a.63.63,0,0,1,0-1h0l8.1-8a.64.64,0,0,1,1,0l2.55,2.48a.63.63,0,0,1,0,1h0l-3,3c2.1,2.4,4.36,4.72,6.75,7L25.5,45c-2.4-2.4-4.73-4.58-7.12-6.6l-3,3a.64.64,0,0,1-1,0Zm17.7,6.9c2.62,2.47,5.47,4.88,8.4,7.35l.6.22c.15.15.07.45-.15.75a9.84,9.84,0,0,1-2,2c-.37.23-.6.3-.82.15l-.15-.52C32.7,52.72,30.3,50,27.75,47.4l1.65-1.65Z"/><path id="path75" class="cls-5" d="M32.25,32.18l-.08-.6,1-1,.52.07c4.88,4,7.88,8.33,8.93,13.2-2-3.29-3.75-5.7-4.88-6.37-.52-.3-1.19-.08-1.87.38L19.05,55.65l-.22.6c-.15.15-.45.08-.75-.15a9.67,9.67,0,0,1-1.5-1.5c-.23-.38-.3-.6-.15-.75l.6-.22L34.5,36.45a1.88,1.88,0,0,0,.15-1.87Z"/><path id="path77" class="cls-4" d="M11.25,50.48s-2.47,3.45-1,7.12A11.54,11.54,0,0,0,15,63s1.05-4.12.15-7.28a9.78,9.78,0,0,0-3.9-5.24"/><path id="path79" class="cls-6" d="M11.25,50.48s3.53,2.69,4.12,5.32c.45,2-.07,4.87-.15,6.07a64.14,64.14,0,0,1-3.75-10.2A40.28,40.28,0,0,0,15,62a12.61,12.61,0,0,1-4.35-4.57c-2.1-3.37.6-7,.6-7"/><path id="path81" class="cls-4" d="M14.85,57.15a6.3,6.3,0,0,0,1.2,5.1,7.73,7.73,0,0,0,4.43,2.4,12.6,12.6,0,0,0-1.8-5,6.86,6.86,0,0,0-3.83-2.48"/><path id="path83" class="cls-6" d="M14.85,57.15s2.93,1.05,4,2.77a17.71,17.71,0,0,1,1.58,4.43A59.65,59.65,0,0,1,15.3,58a34,34,0,0,0,5.1,6.6,8.91,8.91,0,0,1-4-2.17c-2.25-1.95-1.58-5.25-1.58-5.25"/><path id="path85" class="cls-4" d="M9.82,68.1s2.33-3.37,5.18-3.52a11,11,0,0,1,6.3,2,13.09,13.09,0,0,1-5.47,2.85c-2.78.52-6-1.35-6-1.35"/><path id="path87" class="cls-6" d="M9.82,68.4s3.3,1.57,5.63,1.12a21,21,0,0,0,5-2.25,67.94,67.94,0,0,0-9.6.83,43.21,43.21,0,0,1,9.52-1.2,12,12,0,0,0-5.1-1.43c-3.38-.22-5.48,2.93-5.48,2.93"/><path id="path89" class="cls-4" d="M12.45,20.63s1.27,2.77.3,4.72a8.68,8.68,0,0,1-3.53,3.53,11.07,11.07,0,0,1,.16-4.73,8.71,8.71,0,0,1,3.07-3.52"/><path id="path91" class="cls-6" d="M12.45,20.63S10,22.2,9.37,23.93A14,14,0,0,0,9,28.05a37.6,37.6,0,0,0,3.22-6.6,28.91,28.91,0,0,1-3,6.68,10.23,10.23,0,0,0,3.15-2.78,4.56,4.56,0,0,0,.08-4.72"/><path id="path93" class="cls-4" d="M18,27.6a5.7,5.7,0,0,0-5-.9,7.93,7.93,0,0,0-4,3.38,11.42,11.42,0,0,0,5.25.3A7.29,7.29,0,0,0,18,27.6"/><path id="path95" class="cls-6" d="M18,28.2s-1.95,2-3.83,2.33A19.11,19.11,0,0,1,9.9,30.3a56.19,56.19,0,0,1,7.2-2,38.4,38.4,0,0,0-7.35,1.8,9.77,9.77,0,0,1,3.3-2.48,5.66,5.66,0,0,1,4.95.6"/><path id="path97" class="cls-4" d="M18,21.6s-3-.6-4.88.75C10.05,24.6,9,29,9,29a12.73,12.73,0,0,0,5.7-2.1C16.8,25.43,18,21.6,18,21.6"/><path id="path99" class="cls-6" d="M18.82,22.35S17.47,25.8,15.3,27A27.49,27.49,0,0,1,10.05,29a61.12,61.12,0,0,1,7.72-6.08,41.31,41.31,0,0,0-7.95,5.86A11,11,0,0,1,12.6,24.3a7.42,7.42,0,0,1,6.22-1.95"/><path id="path101" class="cls-4" d="M5.4,26.4s3,2.7,2.77,5.55A11.67,11.67,0,0,1,5.4,38a13,13,0,0,1-2.1-5.77C3.22,29.4,5.4,26.4,5.4,26.4"/><path id="path103" class="cls-6" d="M5,26.4s-1.95,2.85-1.73,5A16.73,16.73,0,0,0,5,36.3a51.22,51.22,0,0,0,.3-8.92,35,35,0,0,1,0,8.92,11.1,11.1,0,0,0,2-4.5C8,28.72,5,26.4,5,26.4"/><path id="path105" class="cls-4" d="M13.12,30.6A6.35,6.35,0,0,0,7.8,32.55,10,10,0,0,0,5.7,38a12.42,12.42,0,0,0,5.18-2.7,8.75,8.75,0,0,0,2.25-4.72"/><path id="path107" class="cls-6" d="M13.12,30.6s-.82,3.6-2.54,5.1A21.26,21.26,0,0,1,6,38.1a60.54,60.54,0,0,1,6.3-6.82A45.47,45.47,0,0,0,5.77,38a12.39,12.39,0,0,1,2-5,5.93,5.93,0,0,1,5.4-2.4"/><path id="path109" class="cls-4" d="M8.85,27.23s-2.78.9-3.75,2.85c-1.65,3.15-.75,7.12-.75,7.12a13.57,13.57,0,0,0,3.9-4.27c1.2-2.1.6-5.7.6-5.7"/><path id="path111" class="cls-6" d="M9.75,27.23S10.2,30.9,9,33a23,23,0,0,1-3.53,4.13,69,69,0,0,1,3.68-9.08,44.47,44.47,0,0,0-4,9A12.73,12.73,0,0,1,5.4,31.8c.82-3.37,4.35-4.57,4.35-4.57"/><path id="path113" class="cls-4" d="M1.35,35.55S4.87,37.2,5.47,39.9a11.56,11.56,0,0,1-.67,6.45,13.38,13.38,0,0,1-3.68-4.8c-.82-2.55.23-6,.23-6"/><path id="path115" class="cls-6" d="M1.2,35.55S.3,39,1.2,41.1a22.94,22.94,0,0,0,2.92,4.43,70.89,70.89,0,0,0-2.4-9,41.2,41.2,0,0,1,2.7,8.92,12.61,12.61,0,0,0,.45-5.1,6.62,6.62,0,0,0-3.67-4.8"/><path id="path117" class="cls-4" d="M9.75,36.38A6.56,6.56,0,0,0,5,40a11,11,0,0,0-.67,6.37A13.6,13.6,0,0,0,8.7,42.08a10,10,0,0,0,1.05-5.7"/><path id="path119" class="cls-6" d="M9,36.38S9.07,40.05,7.8,42a19.37,19.37,0,0,1-3.45,3.53A64.74,64.74,0,0,1,8.4,37.2a45.27,45.27,0,0,0-4.28,8.25,13.73,13.73,0,0,1,.6-5.25A5.72,5.72,0,0,1,9,36.38"/><path id="path121" class="cls-4" d="M5.17,34.73s-2.32,2-2.62,4.27A12.46,12.46,0,0,0,4.2,46.35a15.28,15.28,0,0,0,2.25-5.7c.45-2.55-1.27-5.92-1.27-5.92"/><path id="path123" class="cls-6" d="M5.25,35.55S7,38.85,6.52,41.17a22.7,22.7,0,0,1-2,5.11,60.25,60.25,0,0,1,.37-9.68,41.12,41.12,0,0,0-.82,9.75,11.06,11.06,0,0,1-1.58-5c-.3-3.45,2.78-5.78,2.78-5.78"/><path id="path125" class="cls-4" d="M0,46.35s4.05.22,5.63,2.62A11.79,11.79,0,0,1,7.35,55.5,13.23,13.23,0,0,1,2,52.28C.23,50.1,0,46.35,0,46.35"/><path id="path127" class="cls-6" d="M0,46.35S.37,50,2,51.6a20.34,20.34,0,0,0,4.35,3A79,79,0,0,0,.83,47.1,41.41,41.41,0,0,1,6.6,54.45a11.42,11.42,0,0,0-1.35-5A6.54,6.54,0,0,0,0,46.35"/><path id="path129" class="cls-4" d="M8.7,43.05a7.3,7.3,0,0,0-2.93,5.48,10.76,10.76,0,0,0,1.65,6.15,16.26,16.26,0,0,0,2.4-6A10.42,10.42,0,0,0,8.7,43.05"/><path id="path131" class="cls-6" d="M8.7,43.05s1.5,3.07,1,5.33A18.16,18.16,0,0,1,7.42,53,51,51,0,0,1,8.4,44a38.58,38.58,0,0,0-1.2,9,10.65,10.65,0,0,1-1.42-4.8c-.23-3.3,2.92-5.18,2.92-5.18"/><path id="path133" class="cls-4" d="M3.9,43.87S2.1,46.57,2.55,49a12.22,12.22,0,0,0,4.2,6.53,14.6,14.6,0,0,0,.52-6.37C6.82,46.5,3.9,43.87,3.9,43.87"/><path id="path135" class="cls-6" d="M4.35,43.87S7,46.28,7.28,48.52a21.33,21.33,0,0,1-.23,5.1,65.52,65.52,0,0,1-2.63-8.7,42.28,42.28,0,0,0,2.4,8.93,11.36,11.36,0,0,1-3-4,6.63,6.63,0,0,1,.53-6"/><path id="path137" class="cls-4" d="M2.47,58.88s3.45-2.55,6.15-1.51A12.41,12.41,0,0,1,14,62s-3.45,1.35-6.23.68-5.25-3.83-5.25-3.83"/><path id="path139" class="cls-6" d="M2.47,58.58s2.7,3,5.33,3.45a24.76,24.76,0,0,0,6.07-.38,70.43,70.43,0,0,0-10.12-3A44.75,44.75,0,0,1,14,61.35a13.32,13.32,0,0,0-4.58-3.6c-3.52-1.73-6.9.82-6.9.82"/><path id="path141" class="cls-4" d="M5.77,51.3S5.47,55,7.2,57.08c2.77,3.45,7.57,4.2,7.57,4.2a17.82,17.82,0,0,0-2.92-6.6c-1.8-2.33-6.08-3.38-6.08-3.38"/><path id="path143" class="cls-6" d="M5.77,52.2s4.28,1.2,6,3.6a30.15,30.15,0,0,1,3,6,76.92,76.92,0,0,1-8.25-8.4,54.8,54.8,0,0,0,8,8.78,13.69,13.69,0,0,1-5.7-2.7C5.4,56.78,5.77,52.2,5.77,52.2"/><path id="path145" class="cls-4" d="M9,60.15s1.5,3.45,4.12,4.5c4.2,1.72,9,0,9,0a17.45,17.45,0,0,0-5.85-4.5c-2.85-1.2-7.27,0-7.27,0"/><path id="path147" class="cls-6" d="M9.82,60.07s4.28-1.12,7,.23a29.09,29.09,0,0,1,5.33,4A70.86,70.86,0,0,1,11,60.75a47.68,47.68,0,0,0,11.1,4,12.45,12.45,0,0,1-6.23.37c-4.27-.67-6.07-5.1-6.07-5.1"/><path id="path149" class="cls-4" d="M42,50.48s2.47,3.45,1,7.12A11.54,11.54,0,0,1,38.25,63s-1-4.12-.15-7.28A9.78,9.78,0,0,1,42,50.48"/><path id="path151" class="cls-6" d="M42.75,50.48s-3.53,2.69-4.12,5.32c-.45,2,.07,4.87.15,6.07a64.14,64.14,0,0,0,3.75-10.2A40.28,40.28,0,0,1,39,62a12.61,12.61,0,0,0,4.35-4.57c2.18-3.37-.6-7-.6-7"/><path id="path153" class="cls-4" d="M37.57,57.15a6.25,6.25,0,0,1-1.2,5.1A7.71,7.71,0,0,1,32,64.65a12.43,12.43,0,0,1,1.8-5,6.85,6.85,0,0,1,3.82-2.48"/><path id="path155" class="cls-6" d="M38.4,57.15s-2.93,1.05-4,2.77a21.8,21.8,0,0,0-1.65,4.43A51.16,51.16,0,0,0,37.87,58a33.59,33.59,0,0,1-5.1,6.6,9,9,0,0,0,4-2.17c2.32-1.95,1.65-5.25,1.65-5.25"/><path id="path157" class="cls-4" d="M43.42,68.1s-2.32-3.37-5.17-3.52a11,11,0,0,0-6.3,2,13.09,13.09,0,0,0,5.47,2.85c2.78.52,6-1.35,6-1.35"/><path id="path159" class="cls-6" d="M43.42,68.4S40.13,70,37.8,69.52a21,21,0,0,1-5-2.25,68.07,68.07,0,0,1,9.6.83,43.21,43.21,0,0,0-9.52-1.2A11.9,11.9,0,0,1,38,65.47c3.37-.22,5.47,2.93,5.47,2.93"/><path id="path161" class="cls-4" d="M40.8,20.63s-1.27,2.77-.3,4.72A8.62,8.62,0,0,0,44,28.88a11,11,0,0,0-.15-4.73,8.71,8.71,0,0,0-3.07-3.52"/><path id="path163" class="cls-6" d="M41.62,20.63s2.48,1.57,3.08,3.3a14,14,0,0,1,.38,4.12,38.37,38.37,0,0,1-3.23-6.6,28.91,28.91,0,0,0,3,6.68,10.23,10.23,0,0,1-3.15-2.78,4.56,4.56,0,0,1-.08-4.72"/><path id="path165" class="cls-4" d="M35.25,27.6a5.7,5.7,0,0,1,5-.9,7.93,7.93,0,0,1,4,3.38,11.44,11.44,0,0,1-5.25.3,7.29,7.29,0,0,1-3.75-2.78"/><path id="path167" class="cls-6" d="M35.25,28.2s2,2,3.83,2.33a19.11,19.11,0,0,0,4.27-.23,56.19,56.19,0,0,0-7.2-2,38.4,38.4,0,0,1,7.35,1.8,9.77,9.77,0,0,0-3.3-2.48,5.66,5.66,0,0,0-5,.6"/><path id="path169" class="cls-4" d="M35.25,21.6s3-.6,4.88.75C43.2,24.6,44.25,29,44.25,29a12.73,12.73,0,0,1-5.7-2.1c-2.1-1.42-3.3-5.25-3.3-5.25"/><path id="path171" class="cls-6" d="M35.25,22.35S36.6,25.8,38.78,27A27.43,27.43,0,0,0,44,29a66.58,66.58,0,0,0-7.72-6.08,41.31,41.31,0,0,1,8,5.86,11.09,11.09,0,0,0-2.77-4.43,7.44,7.44,0,0,0-6.23-1.95"/><path id="path173" class="cls-4" d="M48.68,26.4s-3,2.7-2.78,5.55A11.73,11.73,0,0,0,48.68,38a13.12,13.12,0,0,0,2.1-5.77c.07-2.85-2.1-5.85-2.1-5.85"/><path id="path175" class="cls-6" d="M48.22,26.4s2,2.85,1.73,5A16.73,16.73,0,0,1,48.3,36.3a50.26,50.26,0,0,1-.3-8.92,35,35,0,0,0,0,8.92,10.94,10.94,0,0,1-2-4.5c-.67-3.08,2.25-5.4,2.25-5.4"/><path id="path177" class="cls-4" d="M39.3,30.6a6.37,6.37,0,0,1,5.33,1.95A10,10,0,0,1,46.73,38a12.37,12.37,0,0,1-5.18-2.7A8.75,8.75,0,0,1,39.3,30.6"/><path id="path179" class="cls-6" d="M40.13,30.6s.82,3.6,2.54,5.1a21,21,0,0,0,4.58,2.4A60.54,60.54,0,0,0,41,31.28,45.92,45.92,0,0,1,47.47,38a12.09,12.09,0,0,0-1.95-5,5.9,5.9,0,0,0-5.39-2.4"/><path id="path181" class="cls-4" d="M43.58,27.23s3.22.9,4.42,2.85c2,3.15.9,7.12.9,7.12a15.36,15.36,0,0,1-4.57-4.27c-1.43-2.1-.75-5.7-.75-5.7"/><path id="path183" class="cls-6" d="M43.5,27.23s-.45,3.67.75,5.77a23,23,0,0,0,3.53,4.13,69,69,0,0,0-3.68-9.08,44.47,44.47,0,0,1,4,9,12.73,12.73,0,0,0-.22-5.25c-.82-3.37-4.35-4.57-4.35-4.57"/><path id="path185" class="cls-4" d="M52.73,35.55S49.2,37.2,48.6,39.9a11.52,11.52,0,0,0,.68,6.45A13.28,13.28,0,0,0,53,41.55c.82-2.55-.22-6-.22-6"/><path id="path187" class="cls-6" d="M52.05,35.55s.9,3.45,0,5.55a22.48,22.48,0,0,1-2.93,4.43,74.4,74.4,0,0,1,2.4-9,41.2,41.2,0,0,0-2.7,8.92,13,13,0,0,1-.45-5.1,6.62,6.62,0,0,1,3.68-4.8"/><path id="path189" class="cls-4" d="M43.5,36.38A6.56,6.56,0,0,1,48.3,40,11,11,0,0,1,49,46.35a13.6,13.6,0,0,1-4.42-4.27,10,10,0,0,1-1-5.7"/><path id="path191" class="cls-6" d="M43.42,36.38s-.07,3.67,1.2,5.62a22.39,22.39,0,0,0,3.45,3.53,64.74,64.74,0,0,0-4-8.33,44.05,44.05,0,0,1,4.28,8.25,13.73,13.73,0,0,0-.6-5.25,5.72,5.72,0,0,0-4.28-3.82"/><path id="path193" class="cls-4" d="M47.25,34.73s2.32,2,2.62,4.27a12.46,12.46,0,0,1-1.65,7.35A15.47,15.47,0,0,1,46,40.65c-.45-2.55,1.28-5.92,1.28-5.92"/><path id="path195" class="cls-6" d="M48,35.55s-1.73,3.3-1.28,5.62a22.67,22.67,0,0,0,2,5.11,71.22,71.22,0,0,0-.45-9.68,41.12,41.12,0,0,1,.82,9.75,11.06,11.06,0,0,0,1.58-5c.37-3.45-2.7-5.78-2.7-5.78"/><g id="g208"><g class="cls-7"><path id="path206" class="cls-4" d="M53.15,46.35s-4,.23-5.47,2.63A12.23,12.23,0,0,0,46,55.43a12.55,12.55,0,0,0,5.18-3.23c1.8-2.17,2-5.85,2-5.85"/></g></g><path id="path210" class="cls-6" d="M52.42,46.35s-.37,3.6-2,5.25a19.86,19.86,0,0,1-4.35,3A69.57,69.57,0,0,1,51.6,47a41.09,41.09,0,0,0-5.78,7.35,11.63,11.63,0,0,1,1.35-5c1.65-2.92,5.25-3,5.25-3"/><path id="path212" class="cls-4" d="M43.73,43.05a7.27,7.27,0,0,1,2.92,5.48A10.76,10.76,0,0,1,45,54.68a16.45,16.45,0,0,1-2.4-6,10.38,10.38,0,0,1,1.13-5.63"/><path id="path214" class="cls-6" d="M44.55,43.05s-1.5,3.07-1,5.33A18.86,18.86,0,0,0,45.82,53a52,52,0,0,0-1-8.92,38.58,38.58,0,0,1,1.2,9,10.65,10.65,0,0,0,1.42-4.8c.23-3.3-2.92-5.18-2.92-5.18"/><path id="path216" class="cls-4" d="M49.35,43.87s1.8,2.7,1.35,5.1c-.67,3.9-4.2,6.53-4.2,6.53A14.6,14.6,0,0,1,46,49.13c.45-2.63,3.37-5.26,3.37-5.26"/><path id="path218" class="cls-6" d="M48.9,43.87S46.27,46.28,46,48.52a21.33,21.33,0,0,0,.23,5.1,51.7,51.7,0,0,0,2.62-8.77,45.2,45.2,0,0,1-2.32,9,11.36,11.36,0,0,0,3-4,6.78,6.78,0,0,0-.6-6"/><path id="path220" class="cls-4" d="M50.77,58.88s-3.45-2.55-6.15-1.51A12.35,12.35,0,0,0,39.3,62s3.45,1.35,6.22.68,5.25-3.83,5.25-3.83"/><path id="path222" class="cls-6" d="M50.77,58.58s-2.7,3-5.32,3.45a24.72,24.72,0,0,1-6.07-.38,69.68,69.68,0,0,1,10.12-3,44.75,44.75,0,0,0-10.2,2.7A13.06,13.06,0,0,1,44,57.75c3.45-1.73,6.83.82,6.83.82"/><path id="path224" class="cls-4" d="M47.47,51.3s.31,3.68-1.42,5.78c-2.78,3.45-7.58,4.2-7.58,4.2a17.94,17.94,0,0,1,2.93-6.6c1.8-2.33,6.07-3.38,6.07-3.38"/><path id="path226" class="cls-6" d="M48.3,52.2s-4.28,1.2-6,3.6a29.51,29.51,0,0,0-3,6,78.78,78.78,0,0,0,8.25-8.4,55.35,55.35,0,0,1-8,8.78,13.64,13.64,0,0,0,5.7-2.7c3.45-2.7,3.08-7.35,3.08-7.28"/><path id="path228" class="cls-4" d="M44.25,60.15s-1.5,3.45-4.12,4.5c-4.2,1.72-9,0-9,0A17.45,17.45,0,0,1,37,60.15c2.85-1.2,7.27,0,7.27,0"/><path id="path230" class="cls-6" d="M44.25,60.07S40,59,37.28,60.3a34.93,34.93,0,0,0-5.33,4,70.86,70.86,0,0,0,11.1-3.6,47.68,47.68,0,0,1-11.1,4,12.35,12.35,0,0,0,6.23.37c4.27-.67,6.07-5.1,6.07-5.1"/><g id="g243"><g class="cls-8"><path id="path241" class="cls-4" d="M19.6,60.47a66.18,66.18,0,0,0,13.35,0A16.36,16.36,0,0,0,33,66.54l1.28.08-.45,3c-2.63-.6-12.6-.6-15.23,0l-.45-3,1.35-.08a16.35,16.35,0,0,0,.08-6.07"/></g></g><path id="path245" class="cls-6" d="M20.25,61.28a92.37,92.37,0,0,0,12.67,0,14.72,14.72,0,0,0,.6,7.5,108.22,108.22,0,0,0-14,0,13.19,13.19,0,0,0,.68-7.5"/><path id="path247" class="cls-5" d="M21.6,62.1a5.32,5.32,0,0,1-.52.82,6.1,6.1,0,0,1-.6.68v.45a10.6,10.6,0,0,0,.75-.75l.07,3.82a.46.46,0,0,1-.07.3c0,.16-.16.23-.3.23V68h1.65v-.3a.86.86,0,0,1-.3-.23c0-.07-.08-.22-.08-.3v-5ZM23,63.83h.3c0-.3.08-.45.23-.53a.46.46,0,0,1,.3-.07h1.57c-.3.44-.52,1-.82,1.42s-.53,1.12-.83,1.72-.37,1.13-.52,1.5h1.27c.08-.29.15-.75.3-1.19s.23-1,.38-1.5.3-1.06.45-1.51L26,62.33V62.1H23.17A14.26,14.26,0,0,0,23,63.82Zm3,0h.3c0-.3.07-.45.22-.53a.46.46,0,0,1,.3-.07h1.57c-.22.37-.52.9-.82,1.42s-.53,1.12-.83,1.72-.37,1.13-.52,1.5h1.28c.07-.29.15-.75.22-1.19.22-1,.52-2,.82-3L29,62.33V62.1H26.1Zm3.29-.38c.16-.3.3-.52.53-.6a1.38,1.38,0,0,1,.38-.15.44.44,0,0,1,.44.22.55.55,0,0,1,.08.38.86.86,0,0,1-.23.6,3.44,3.44,0,0,1-.45.52c-.22.15-.37.3-.6.45l.16.3c.07-.07.15-.07.22-.15S30,65,30.07,65a.59.59,0,0,1,.53.22.81.81,0,0,1,.15.6,3.54,3.54,0,0,1-.15.75,1.32,1.32,0,0,1-.53.6,1.93,1.93,0,0,1-1.05.3l-.07.45h.3a2.64,2.64,0,0,0,1.35-.37,2.76,2.76,0,0,0,.9-.9,1.94,1.94,0,0,0,.3-1,1.2,1.2,0,0,0-.3-.9,1,1,0,0,0-.83-.3h-.15v-.08c.16-.07.23-.22.3-.3s.23-.3.38-.45a1.47,1.47,0,0,0,.15-.6.86.86,0,0,0-.22-.6,1.15,1.15,0,0,0-.75-.3,1.23,1.23,0,0,0-.53.08,1.74,1.74,0,0,0-.52.3,2.09,2.09,0,0,0-.53.75Z"/></g></g></g></svg>