<svg xmlns="http://www.w3.org/2000/svg" viewBox="0 0 50 50" width="50" height="50">
	<style>
		tspan { white-space:pre }
		.shp0 { fill: #ffffff } 
		.shp1 { fill: #231f20 } 
		.shp2 { fill: #e01d3b } 
	</style>
	<g id="Layer 1">
		<path id="&lt;Path&gt;" class="shp0" d="M49.94 25.01C49.94 38.81 38.8 49.99 25.05 49.99C11.31 49.99 0.17 38.81 0.17 25.01C0.17 11.21 11.31 0.02 25.05 0.02C38.8 0.02 49.94 11.21 49.94 25.01Z" />
		<g id="&lt;Group&gt;">
			<path id="&lt;Path&gt;" class="shp1" d="M31.03 30.16C31.03 30.07 31.12 29.98 31.22 29.98C31.37 29.99 31.52 29.99 31.66 30L29.09 28.47L24.58 25.94L22.67 24.19L18.92 28.87L14.83 30.84L21.66 30.84C21.72 30.42 22.46 30.33 22.79 30.29C23.19 30.24 23.59 30.23 23.99 30.21C24.94 30.18 25.89 30.21 26.84 30.23C27.86 30.26 28.87 30.27 29.89 30.26C30.28 30.25 30.66 30.23 31.05 30.22C31.04 30.2 31.04 30.19 31.03 30.16Z" />
			<path id="&lt;Compound Path&gt;" fill-rule="evenodd" class="shp1" d="M32.54 30.8C26.78 30.8 21.4 27.11 21.4 19.63C21.4 12.19 26.97 8.44 32.64 8.44C38.21 8.44 43.75 12.19 43.75 19.63C43.75 26.21 39.14 30.8 32.54 30.8ZM32.54 25.87C35.42 25.87 38.37 23.74 38.37 19.63C38.37 15.53 35.49 13.4 32.61 13.4C29.59 13.4 26.71 15.43 26.71 19.63C26.71 23.74 29.56 25.87 32.54 25.87Z" />
			<path id="&lt;Path&gt;" class="shp2" d="M18.01 16.62L22.03 13.04L22.71 8.44L7.29 8.44L7.29 12.26L16.6 12.26L11.05 17.63L12.81 20.55L13.27 20.36C13.81 20.13 14.46 19.99 14.98 19.99C17.31 19.99 18.81 21.39 18.81 23.55C18.81 25.7 17.2 27.14 14.8 27.14C12.44 27.14 10.72 25.48 10.62 23.11L10.59 22.41L6.71 23.29L6.74 23.79C7 27.94 10.33 30.84 14.83 30.84C19.38 30.84 22.81 27.73 22.81 23.61C22.81 19.56 21.05 17.06 18.01 16.62Z" />
			<g id="&lt;Group&gt;">
				<path id="&lt;Compound Path&gt;" fill-rule="evenodd" class="shp0" d="M33.51 29.8L34.16 30.84L21.6 30.84L22.25 29.8L22.68 29.8L23.23 25.21L22.44 25.21L22.44 23.91L23.39 23.91L24.49 14.77L23.85 14.77L23.85 13.54L24.64 13.54L25.19 9.01L25.96 9.01L25.96 8.52L29.8 8.52L29.8 9.01L30.58 9.01L31.12 13.54L31.91 13.54L31.91 14.77L31.27 14.77L32.37 23.91L33.32 23.91L33.32 25.21L32.53 25.21L33.08 29.8L33.51 29.8ZM31.79 28.28L31.43 25.34L29.16 25.34L31.79 28.28ZM31.24 23.77L30.98 21.55L28.98 23.77L31.24 23.77ZM31.15 28.66L28.4 25.59L28.4 27.81L28.9 27.81L28.9 28.66L31.15 28.66ZM30.8 20.09L30.22 15.3L28.4 17.34L28.4 17.41L30.8 20.09ZM30.56 20.92L28.4 18.5L28.4 23.33L30.56 20.92ZM29.95 12.99L29.6 10.15L29.27 10.15L28.4 11.14L28.4 11.23L29.95 12.99ZM28.4 16.25L29.6 14.9L28.4 14.9L28.4 16.25ZM29.34 13.41L28.4 12.34L28.4 13.41L29.34 13.41ZM28.25 10.44L28.61 10.02L28.25 10.02L28.25 10.44ZM27.52 10.44L27.52 10.02L27.15 10.02L27.52 10.44ZM27.36 27.81L27.36 25.59L24.61 28.66L26.86 28.66L26.86 27.81L27.36 27.81ZM27.36 23.33L27.36 18.5L25.2 20.92L27.36 23.33ZM27.36 17.41L27.36 17.34L25.54 15.3L24.96 20.09L27.36 17.41ZM27.36 16.25L27.36 14.9L26.16 14.9L27.36 16.25ZM27.36 13.41L27.36 12.34L26.42 13.41L27.36 13.41ZM27.36 11.23L27.36 11.14L26.5 10.15L26.16 10.15L25.82 12.99L27.36 11.23ZM26.78 23.77L24.79 21.55L24.52 23.77L26.78 23.77ZM23.97 28.28L26.61 25.34L24.33 25.34L23.97 28.28Z" />
			</g>
			<g id="&lt;Group&gt;">
				<path id="&lt;Path&gt;" class="shp1" d="M27.36 17.33L27.36 17.41L24.96 20.09L25.54 15.3L27.36 17.33Z" />
			</g>
			<g id="&lt;Group&gt;">
				<g id="&lt;Group&gt;">
					<g id="&lt;Group&gt;">
						<g id="&lt;Group&gt;">
							<path id="&lt;Compound Path&gt;" fill-rule="evenodd" class="shp1" d="M29.02 25.28L31.49 25.28L31.87 28.46L29.02 25.28ZM29.29 25.4L31.71 28.1L31.38 25.4L29.29 25.4Z" />
							<path id="&lt;Compound Path&gt;" fill-rule="evenodd" class="shp1" d="M31.31 23.83L28.85 23.83L31.02 21.41L31.31 23.83ZM29.11 23.71L31.18 23.71L30.93 21.68L29.11 23.71Z" />
							<path id="&lt;Compound Path&gt;" fill-rule="evenodd" class="shp1" d="M30.64 20.91L28.34 23.48L28.34 18.34L30.64 20.91ZM28.46 18.65L28.46 23.18L30.48 20.91L28.46 18.65Z" />
							<path id="&lt;Compound Path&gt;" fill-rule="evenodd" class="shp1" d="M29.47 13.47L28.34 13.47L28.34 12.17L29.47 13.47ZM28.46 13.35L29.21 13.35L28.46 12.49L28.46 13.35Z" />
							<path id="&lt;Compound Path&gt;" fill-rule="evenodd" class="shp1" d="M28.34 11.11L29.24 10.09L29.65 10.09L30.03 13.17L28.34 11.25L28.34 11.11ZM29.86 12.81L29.55 10.21L29.29 10.21L28.46 11.16L28.46 11.2L29.86 12.81Z" />
							<path id="&lt;Compound Path&gt;" fill-rule="evenodd" class="shp1" d="M28.34 14.84L29.74 14.84L28.34 16.4L28.34 14.84ZM28.46 14.96L28.46 16.09L29.47 14.96L28.46 14.96Z" />
							<path id="&lt;Compound Path&gt;" fill-rule="evenodd" class="shp1" d="M28.34 17.31L30.27 15.16L30.88 20.27L28.34 17.43L28.34 17.31ZM28.46 17.36L28.46 17.39L30.72 19.91L30.18 15.43L28.46 17.36Z" />
							<path id="&lt;Compound Path&gt;" fill-rule="evenodd" class="shp1" d="M28.84 27.86L28.34 27.86L28.34 25.43L31.28 28.71L28.84 28.71L28.84 27.86ZM28.96 27.74L28.96 28.59L31.01 28.59L28.46 25.74L28.46 27.74L28.96 27.74Z" />
							<path id="&lt;Compound Path&gt;" fill-rule="evenodd" class="shp1" d="M28.74 9.96L28.19 10.59L28.19 9.96L28.74 9.96ZM28.3 10.28L28.48 10.08L28.3 10.08L28.3 10.28Z" />
							<path id="&lt;Compound Path&gt;" fill-rule="evenodd" class="shp1" d="M27.02 9.96L27.58 9.96L27.58 10.59L27.02 9.96ZM27.28 10.08L27.46 10.28L27.46 10.08L27.28 10.08Z" />
							<path id="&lt;Path&gt;" class="shp1" d="M27.3 11.16L27.3 11.2L25.9 12.81L26.21 10.21L26.47 10.21L27.3 11.16Z" />
							<path id="&lt;Compound Path&gt;" fill-rule="evenodd" class="shp1" d="M27.42 13.47L26.29 13.47L27.42 12.17L27.42 13.47ZM26.55 13.35L27.3 13.35L27.3 12.49L26.55 13.35Z" />
							<path id="&lt;Compound Path&gt;" fill-rule="evenodd" class="shp1" d="M27.42 16.4L26.03 14.84L27.42 14.84L27.42 16.4ZM26.29 14.96L27.3 16.09L27.3 14.96L26.29 14.96Z" />
							<path id="&lt;Compound Path&gt;" fill-rule="evenodd" class="shp1" d="M27.42 11.25L25.74 13.17L26.11 10.09L26.52 10.09L27.42 11.11L27.42 11.25ZM26.21 10.21L25.9 12.81L27.3 11.2L27.3 11.16L26.47 10.21L26.21 10.21Z" />
							<path id="&lt;Compound Path&gt;" fill-rule="evenodd" class="shp1" d="M27.42 23.48L25.12 20.91L27.42 18.34L27.42 23.48ZM25.28 20.91L27.3 23.18L27.3 18.65L25.28 20.91Z" />
							<path id="&lt;Compound Path&gt;" fill-rule="evenodd" class="shp1" d="M24.88 20.27L25.5 15.16L27.42 17.31L27.42 17.43L24.88 20.27ZM27.3 17.36L25.58 15.43L25.04 19.91L27.3 17.39L27.3 17.36Z" />
							<path id="&lt;Compound Path&gt;" fill-rule="evenodd" class="shp1" d="M24.48 28.71L27.42 25.43L27.42 27.86L26.92 27.86L26.92 28.71L24.48 28.71ZM27.3 25.74L24.75 28.59L26.8 28.59L26.8 27.74L27.3 27.74L27.3 25.74Z" />
							<path id="&lt;Compound Path&gt;" fill-rule="evenodd" class="shp1" d="M24.74 21.41L26.91 23.83L24.45 23.83L24.74 21.41ZM26.65 23.71L24.83 21.68L24.58 23.71L26.65 23.71Z" />
							<path id="&lt;Compound Path&gt;" fill-rule="evenodd" class="shp1" d="M23.89 28.46L24.28 25.28L26.74 25.28L23.89 28.46ZM24.38 25.4L24.06 28.1L26.47 25.4L24.38 25.4Z" />
							<path id="&lt;Path&gt;" class="shp1" d="M23.34 23.84L24.43 14.82L23.79 14.82L23.79 13.48L24.59 13.48L25.13 8.95L25.9 8.95L25.9 8.45L29.86 8.45L29.86 8.95L30.63 8.95L31.18 13.48L31.97 13.48L31.97 14.82L31.34 14.82L32.43 23.84L33.38 23.84L33.38 25.26L32.6 25.26L33.14 29.74L33.54 29.74L34.22 30.84L34.09 30.84C34.07 30.8 34.07 30.8 33.97 30.64L33.48 29.85L33.03 29.85L33.03 29.8L32.46 25.15L33.26 25.15L33.26 23.96L32.32 23.96L32.32 23.91L31.2 14.71L31.85 14.71L31.85 13.6L31.07 13.6L30.52 9.06L29.74 9.06L29.74 8.57L26.02 8.57L26.02 9.06L25.24 9.06L24.69 13.6L23.91 13.6L23.91 14.71L24.56 14.71L24.55 14.77L23.44 23.96L22.5 23.96L22.5 25.15L23.3 25.15L22.73 29.85L22.28 29.85L21.71 30.78L21.67 30.84L21.53 30.84L22.22 29.74L22.63 29.74L23.16 25.26L22.38 25.26L22.38 23.84L23.34 23.84Z" />
						</g>
						<g id="&lt;Group&gt;">
						</g>
					</g>
				</g>
			</g>
			<g id="&lt;Group&gt;">
				<path id="&lt;Compound Path&gt;" class="shp1" d="M33.67 18.55L34.53 20.49L34.25 20.49L33.57 18.93L32.94 20.49L32.65 20.49L33.48 18.55L33.67 18.55Z" />
				<path id="&lt;Compound Path&gt;" class="shp1" d="M35.83 18.56L35.83 18.81L35.01 18.81L35.01 19.39L35.8 19.39L35.8 19.64L35.01 19.64L35.01 20.24L35.85 20.24L35.85 20.49L34.74 20.49L34.74 18.56L35.83 18.56Z" />
				<path id="&lt;Compound Path&gt;" class="shp1" d="M37.58 18.56L37.58 18.81L36.92 18.81L36.92 20.49L36.64 20.49L36.64 18.81L35.98 18.81L35.98 18.56L37.58 18.56Z" />
			</g>
			<g id="&lt;Group&gt;">
				<path id="&lt;Path&gt;" class="shp2" d="M12.33 34.38L12.33 40.38L10.69 40.38L10.69 35.82L9.52 35.82L9.52 38.18C9.52 39.05 9.43 40.45 7.39 40.45C7.14 40.45 6.96 40.44 6.7 40.38L6.7 38.94C6.83 38.97 6.94 39 7.06 39C7.78 39 7.87 38.53 7.87 37.69L7.87 34.38L12.33 34.38Z" />
				<path id="&lt;Path&gt;" class="shp2" d="M14.87 34.38L16.02 36.9L16.96 34.38L18.74 34.38L16.1 40.38L14.34 40.38L15.14 38.72L12.93 34.38L14.87 34.38Z" />
				<path id="&lt;Path&gt;" class="shp2" d="M19.29 34.38L20.93 34.38L20.93 36.9L22.7 34.38L24.62 34.38L22.39 37.28L24.68 40.38L22.63 40.38L20.93 37.8L20.93 40.38L19.29 40.38L19.29 34.38Z" />
				<path id="&lt;Compound Path&gt;" class="shp2" d="M33.62 34.38L33.62 37.98L35.89 34.38L37.5 34.38L37.5 40.38L35.91 40.38L35.91 36.78L33.64 40.38L32.03 40.38L32.03 34.38L33.62 34.38ZM36.53 33.1C36.21 33.8 35.46 34.06 34.77 34.06C34.07 34.06 33.33 33.8 33.01 33.1L33.95 32.74C34.1 33.15 34.46 33.24 34.77 33.24C35.07 33.24 35.44 33.15 35.59 32.74L36.53 33.1Z" />
				<path id="&lt;Path&gt;" class="shp2" d="M43.75 34.38L43.75 40.38L42.11 40.38L42.11 35.82L40.93 35.82L40.93 38.18C40.93 39.05 40.85 40.45 38.81 40.45C38.56 40.45 38.38 40.44 38.12 40.38L38.12 38.94C38.24 38.97 38.36 39 38.48 39C39.2 39 39.29 38.53 39.29 37.69L39.29 34.38L43.75 34.38Z" />
				<path id="&lt;Compound Path&gt;" fill-rule="evenodd" class="shp1" d="M30.24 35.16C30.53 35.46 30.78 35.79 30.96 36.18C31.13 36.57 31.22 37.01 31.22 37.44C31.22 39.2 29.77 40.63 27.98 40.63C26.2 40.63 24.75 39.2 24.75 37.44C24.75 37.19 24.78 36.93 24.84 36.69C24.94 36.28 25.13 35.88 25.39 35.54C25.68 35.17 26.04 34.86 26.36 34.52C26.69 34.19 27.02 33.87 27.33 33.51C27.47 33.35 27.6 33.19 27.72 33.01C27.78 32.92 27.83 32.84 27.87 32.75C27.89 32.71 28 32.55 27.98 32.5C28.06 32.71 28.17 32.91 28.3 33.09C28.8 33.79 29.46 34.36 30.06 34.97C30.12 35.03 30.18 35.09 30.24 35.16ZM27.98 32.5C27.98 32.5 27.98 32.5 27.98 32.5C27.98 32.5 27.98 32.5 27.98 32.5ZM26.72 35.05C26.72 35.05 26.72 35.04 26.72 35.04C26.72 35.03 26.71 35.02 26.69 35.02C26.69 35.02 26.69 35.02 26.68 35.02C26.58 35.11 26.49 35.19 26.41 35.28C25.72 35.99 25.39 36.69 25.42 37.36L25.42 37.36C25.42 37.55 25.58 37.7 25.77 37.7C25.93 37.69 26.07 37.59 26.11 37.44C26.12 37.41 26.13 37.37 26.13 37.34C26.13 37.33 26.13 37.3 26.13 37.3C26.07 36.15 26.5 35.36 26.72 35.05Z" />
			</g>
			<path id="&lt;Path&gt;" class="shp1" d="M34.22 30.84C35.92 30.44 37.19 30.01 38.04 29.55C37.1 29.23 35.77 29.57 34.06 30.57L34.09 30.71L34.22 30.84Z" />
		</g>
	</g>
</svg>