<svg width="95" height="27" viewBox="0 0 95 27" fill="none" xmlns="http://www.w3.org/2000/svg">
<path d="M13.1278 6.46432C12.6542 3.50148 13.5067 1.68555 10.4756 1.68555C7.44448 1.68555 0.0561829 7.89796 0.0561829 16.4998C0.0561829 21.0874 3.75033 24.7193 8.20225 24.7193C12.6542 24.7193 16.3483 20.9918 16.3483 16.4998C16.3483 12.9635 13.6961 10.3829 13.1278 6.46432Z" fill="#FF671D"/>
<path d="M8.20224 21.91C11.1498 21.91 13.5393 19.5205 13.5393 16.5729C13.5393 13.6253 11.1498 11.2358 8.20224 11.2358C5.25466 11.2358 2.86517 13.6253 2.86517 16.5729C2.86517 19.5205 5.25466 21.91 8.20224 21.91Z" fill="#FFDB1D"/>
<path d="M33.5893 21.1572L30.4798 16.6657H30.2955H27.0478V21.1572H23.3163V5.03363H30.2955C31.7236 5.03363 32.9597 5.27165 34.0039 5.74768C35.0635 6.22371 35.8773 6.89936 36.4455 7.77464C37.0137 8.64992 37.2978 9.68644 37.2978 10.8842C37.2978 12.0819 37.006 13.1185 36.4225 13.9937C35.8543 14.8537 35.0404 15.514 33.9809 15.9746L37.5972 21.1572H33.5893ZM33.5202 10.8842C33.5202 9.9782 33.2285 9.28719 32.6449 8.81116C32.0614 8.31977 31.2092 8.07408 30.0882 8.07408H27.0478V13.6943H30.0882C31.2092 13.6943 32.0614 13.4486 32.6449 12.9572C33.2285 12.4658 33.5202 11.7748 33.5202 10.8842ZM48.0626 21.4336C46.3888 21.4336 44.8763 21.0728 43.525 20.351C42.189 19.6293 41.1371 18.6389 40.3693 17.3797C39.6169 16.1052 39.2407 14.6771 39.2407 13.0954C39.2407 11.5138 39.6169 10.0934 40.3693 8.83419C41.1371 7.55966 42.189 6.56153 43.525 5.83981C44.8763 5.11809 46.3888 4.75723 48.0626 4.75723C49.7364 4.75723 51.2412 5.11809 52.5772 5.83981C53.9132 6.56153 54.965 7.55966 55.7328 8.83419C56.5006 10.0934 56.8845 11.5138 56.8845 13.0954C56.8845 14.6771 56.5006 16.1052 55.7328 17.3797C54.965 18.6389 53.9132 19.6293 52.5772 20.351C51.2412 21.0728 49.7364 21.4336 48.0626 21.4336ZM48.0626 18.255C49.0147 18.255 49.8746 18.04 50.6424 17.61C51.4102 17.1647 52.009 16.5505 52.439 15.7673C52.8843 14.9842 53.107 14.0936 53.107 13.0954C53.107 12.0973 52.8843 11.2067 52.439 10.4235C52.009 9.64037 51.4102 9.03382 50.6424 8.60386C49.8746 8.15854 49.0147 7.93588 48.0626 7.93588C47.1105 7.93588 46.2506 8.15854 45.4828 8.60386C44.715 9.03382 44.1085 9.64037 43.6632 10.4235C43.2332 11.2067 43.0182 12.0973 43.0182 13.0954C43.0182 14.0936 43.2332 14.9842 43.6632 15.7673C44.1085 16.5505 44.715 17.1647 45.4828 17.61C46.2506 18.04 47.1105 18.255 48.0626 18.255ZM70.5838 12.8421H73.9928V19.3836C73.1175 20.0439 72.104 20.5507 70.9523 20.9039C69.8007 21.257 68.6413 21.4336 67.4742 21.4336C65.8005 21.4336 64.2956 21.0804 62.9596 20.3741C61.6237 19.6524 60.5718 18.6619 59.804 17.4027C59.0516 16.1282 58.6754 14.6924 58.6754 13.0954C58.6754 11.4984 59.0516 10.0703 59.804 8.81116C60.5718 7.53663 61.6314 6.54618 62.9827 5.83981C64.334 5.11809 65.8542 4.75723 67.5433 4.75723C68.9561 4.75723 70.2383 4.99524 71.39 5.47127C72.5417 5.9473 73.5091 6.63831 74.2922 7.54431L71.8967 9.75554C70.745 8.54243 69.3553 7.93588 67.7276 7.93588C66.6988 7.93588 65.7851 8.15086 64.9866 8.58082C64.1881 9.01079 63.5662 9.61734 63.1209 10.4005C62.6756 11.1836 62.4529 12.0819 62.4529 13.0954C62.4529 14.0936 62.6756 14.9842 63.1209 15.7673C63.5662 16.5505 64.1804 17.1647 64.9636 17.61C65.7621 18.04 66.6681 18.255 67.6816 18.255C68.7565 18.255 69.7239 18.0246 70.5838 17.564V12.8421ZM77.459 5.03363H81.1905V21.1572H77.459V5.03363ZM85.0169 5.03363H88.7484V21.1572H85.0169V5.03363Z" fill="black"/>
</svg>
